<svg width="55" height="50" viewBox="0 0 55 50" fill="none" xmlns="http://www.w3.org/2000/svg">
<rect width="54.5322" height="50" rx="10" fill="#DD2C00"/>
<path d="M26.5 25C30.7609 25 34.2143 21.6426 34.2143 17.5C34.2143 13.3574 30.7609 10 26.5 10C22.2391 10 18.7857 13.3574 18.7857 17.5C18.7857 21.6426 22.2391 25 26.5 25ZM31.9 26.875H30.8935C29.5556 27.4727 28.067 27.8125 26.5 27.8125C24.933 27.8125 23.4504 27.4727 22.1065 26.875H21.1C16.6281 26.875 13 30.4023 13 34.75V37.1875C13 38.7402 14.2958 40 15.8929 40H37.1071C38.7042 40 40 38.7402 40 37.1875V34.75C40 30.4023 36.3719 26.875 31.9 26.875Z" fill="white"/>
</svg>
