<svg width="32" height="32" viewBox="0 0 32 32" fill="none" xmlns="http://www.w3.org/2000/svg">
<path d="M27.1428 12.3509C27.0334 12.3509 26.9283 12.3667 26.8216 12.3766C26.7323 11.647 26.4606 10.9504 26.0305 10.3492L22.8745 15.7194H30.5714C30.5714 14.826 30.2101 13.9692 29.5672 13.3375C28.9242 12.7058 28.0521 12.3509 27.1428 12.3509Z" fill="#DD2C00"/>
<path d="M21.871 8.44351C21.3558 8.48933 20.8524 8.62085 20.3821 8.83245C20.103 7.90316 19.5254 7.08751 18.7355 6.50738C17.9457 5.92724 16.9859 5.61375 15.9997 5.61375C15.0136 5.61375 14.0538 5.92724 13.264 6.50738C12.4741 7.08751 11.8965 7.90316 11.6174 8.83245C10.9636 8.53634 10.2478 8.39648 9.52849 8.42428C8.80915 8.45209 8.10673 8.64678 7.47866 8.99243C6.8506 9.33808 6.31473 9.82489 5.91488 10.413C5.51503 11.0012 5.26256 11.6739 5.17811 12.3763C5.07142 12.3666 4.96634 12.3509 4.85691 12.3509C3.9476 12.3509 3.07553 12.7058 2.43255 13.3375C1.78957 13.9692 1.42834 14.8259 1.42834 15.7193H17.5956L21.871 8.44351Z" fill="#DD2C00"/>
<path d="M21.5548 15.7193L30.1325 1.12281L28.1531 0L18.9154 15.7193H21.5548Z" fill="#DD2C00"/>
<path d="M20.7196 6.96578L24.1532 1.12281L22.1737 0L19.0248 5.35854C19.6963 5.77398 20.2733 6.32114 20.7196 6.96578Z" fill="#DD2C00"/>
<path d="M10.2856 30.3158H21.7142V32H10.2856V30.3158Z" fill="#DD2C00"/>
<path d="M0 16.8421V19.0877C0 21.7678 1.08367 24.3381 3.01261 26.2332C4.94155 28.1283 7.55776 29.1929 10.2857 29.1929H21.7142C24.4422 29.1929 27.0584 28.1283 28.9873 26.2332C30.9163 24.3381 31.9999 21.7678 31.9999 19.0877V16.8421H0Z" fill="#DD2C00"/>
</svg>
