<svg width="108" height="97" viewBox="0 0 108 97" fill="none" xmlns="http://www.w3.org/2000/svg">
<path opacity="0.1" d="M33.3482 4.87445C37.0125 0.597609 42.7644 -0.274035 47.9999 0.0666523C64.4447 1.13674 79.2893 11.5351 92.1298 23.2969C96.7782 27.5548 101.355 32.1436 104.372 38.0071C110.515 49.9434 108.693 66.479 100.152 76.3123C97.2456 79.6579 93.7228 82.2227 90.1063 84.4962C83.676 88.5387 76.7378 91.7839 69.4395 92.7076C64.235 93.3662 58.9665 92.8308 53.7924 91.9117C39.3365 89.3439 25.1471 83.6661 13.2542 73.9517C8.03806 69.691 3.12155 64.394 0.97154 57.5013C-1.17847 50.6086 0.197507 41.8742 5.52373 37.7944C7.72661 36.107 10.3604 35.345 12.939 34.6294C16.7346 33.5761 20.5911 32.5377 24.0163 30.3964C27.5541 28.1847 31.7432 23.9076 31.0427 19.0121C30.2911 13.7594 29.6881 9.14628 33.3482 4.87445Z" fill="#DD2C00"/>
<path opacity="0.1" d="M91.8999 96.6002C98.6746 96.6002 104.167 96.1146 104.167 95.5156C104.167 94.9166 98.6746 94.431 91.8999 94.431C85.1251 94.431 79.6331 94.9166 79.6331 95.5156C79.6331 96.1146 85.1251 96.6002 91.8999 96.6002Z" fill="#DD2C00"/>
<path d="M61.9775 35.9086C61.7777 35.5222 60.722 33.1213 60.722 33.1213L58.9529 28.5402C58.9529 28.5402 57.6974 26.6085 57.6974 26.2497C57.6974 25.8909 55.4146 24.4559 55.4146 24.4559C55.4146 24.4559 53.5599 23.904 53.4173 23.8488C53.2746 23.7936 51.0775 23.0672 51.0775 23.0672C51.0775 23.0672 50.2123 21.9303 50.0891 22.2272L50.089 22.228C50.0845 22.2205 50.0798 22.2139 50.0754 22.2062C49.8986 21.8761 49.7866 21.5153 49.7455 21.1432C49.7408 21.1101 49.7368 21.0752 49.7326 21.0408C50.3025 20.6548 50.7695 20.1357 51.0934 19.5286C51.4172 18.9215 51.5881 18.2447 51.5911 17.5567C51.5907 17.3756 51.5785 17.1947 51.5546 17.0152C51.5703 17.0054 51.5867 16.9967 51.6037 16.9893C51.6392 16.9739 51.6302 16.9614 51.6041 16.9483C51.613 16.9436 51.6219 16.9386 51.6309 16.9348C51.6782 16.9143 51.6466 16.8988 51.6009 16.8803L51.6036 16.879C51.668 16.851 51.5866 16.8325 51.5212 16.8029C51.5177 16.7838 51.5144 16.7647 51.5106 16.7457C51.5251 16.7093 51.534 16.671 51.5369 16.6319C51.5427 16.6348 51.548 16.6379 51.5541 16.6406C51.57 16.5695 51.5696 16.4957 51.5529 16.4248C51.5488 16.4392 51.5439 16.4533 51.5381 16.4672C51.5421 16.4028 51.5289 16.3386 51.4997 16.2811C51.4705 16.2237 51.4264 16.1751 51.372 16.1405C51.3687 16.1376 51.3651 16.1345 51.3617 16.1316L51.4828 14.8936C53.2671 14.8093 53.5801 11.7756 53.1732 11.607C52.7662 11.4385 53.1732 11.0733 53.1732 10.343C53.1732 9.61264 51.8271 8.79803 51.8271 8.79803C51.8271 8.79803 51.2636 9.07894 50.3871 7.67443C49.5106 6.26992 46.2863 6.0452 46.0672 6.41037C45.848 6.77554 44.408 7.25308 42.5298 7.78679C40.6516 8.3205 40.9959 10.5396 41.3089 11.0172C41.5668 11.4119 41.7178 11.8668 41.7472 12.3374C41.7472 12.6183 42.342 13.7981 42.342 13.7981C42.1544 14.2069 42.6318 16.4465 42.7732 17.083C42.771 17.1025 42.7686 17.122 42.7666 17.1417C42.7654 17.1436 42.7639 17.1452 42.7627 17.1472C42.756 17.1575 42.7499 17.1682 42.7444 17.1792C42.7141 17.2452 42.7041 17.3187 42.7156 17.3903C42.7053 17.4687 42.7162 17.5484 42.7473 17.621C42.758 18.2207 42.8968 18.8112 43.1545 19.3529C43.4121 19.8946 43.7826 20.375 44.2411 20.762C44.2433 20.8003 44.2455 20.8388 44.2476 20.8783C44.2739 21.3982 44.2887 22.0131 44.2613 22.6014C44.2599 22.6315 44.2576 22.661 44.256 22.691C44.1525 22.7119 44.0553 22.7568 43.9724 22.8222C43.8894 22.8876 43.823 22.9715 43.7785 23.0672C43.6016 23.4072 42.5744 23.9316 42.5744 23.9316C42.5744 23.9316 40.7767 24.0144 40.6055 24.3455C40.4343 24.6767 37.8377 25.7806 37.8377 25.7806C37.8377 25.7806 36.4681 26.5809 36.6678 27.4916C36.7722 27.9674 36.4792 28.7067 36.1757 29.3045C35.5407 29.0639 34.8795 28.8991 34.2059 28.8136L35.6605 30.2044C35.63 30.2519 35.6121 30.2788 35.6121 30.2788L34.7846 33.2041C34.7846 33.2041 34.4993 34.2252 34.2139 34.4735C33.9286 34.7219 34.4707 36.9848 34.4707 36.9848C34.4707 36.9848 34.1569 38.5855 33.9 38.9994C33.6432 39.4134 34.2995 40.4344 34.2995 40.4344L35.6121 43.4149L39.0932 44.298C39.0932 44.298 39.3252 44.347 39.7001 44.4273C39.6883 44.4985 39.6762 44.5695 39.6639 44.6402C39.4961 45.5895 39.2758 46.4627 39.0076 46.6989C38.3513 47.2784 38.3799 49.8725 38.3799 49.8725L38.4084 53.5429C38.4084 53.5429 38.6367 58.0688 38.5225 58.2343C38.4505 58.3389 38.5951 58.5093 38.9765 58.6625C38.9656 58.7306 38.9549 58.7997 38.9448 58.8702C38.8376 59.6208 38.7896 60.4774 39.0362 60.856C39.1432 61.0608 39.2018 61.2874 39.2074 61.5184C39.2074 61.8771 39.7495 62.6222 39.7495 62.6222C39.7495 62.6222 39.3215 65.6855 40.0348 66.7341C40.7482 67.7828 41.3474 69.687 41.005 70.1285C41.005 70.1285 40.4058 71.4256 40.6911 72.0051C40.9765 72.5847 40.6911 72.9158 40.3202 73.0538C39.9492 73.1918 39.9812 74.3233 39.9812 74.3233L40.6626 79.7046C40.6626 79.7046 41.0335 80.8085 40.7197 81.1948C40.4058 81.5812 40.4058 83.513 40.8909 84.1753C41.3759 84.8376 40.2061 86.0519 40.2061 86.0519C40.2061 86.0519 39.4927 87.0729 40.6341 87.4041C40.6341 87.4041 40.8623 87.4593 40.4343 87.9009C40.0063 88.3424 39.9207 88.8943 40.2061 89.0875C40.2652 89.123 40.3271 89.1537 40.3911 89.1794C40.3805 89.2448 40.3691 89.3126 40.3556 89.3845C40.246 89.9607 40.0394 90.7113 39.6639 91.0745C38.9361 91.8197 38.3081 92.656 37.7955 93.5626C37.404 94.3044 37.2328 94.9987 37.6665 95.3244C38.6938 96.0971 40.0063 96.3455 40.7767 96.0419C41.5471 95.7383 42.6314 94.8 42.6314 94.8L42.8882 93.7238C42.8882 93.7238 42.717 93.0614 43.5731 92.8131C44.4291 92.5647 45.228 91.6816 45.228 91.6816V90.251C45.4353 90.1327 45.6354 90.0022 45.8272 89.8602C45.8272 89.8602 46.2267 88.4528 45.8272 87.9837C45.4278 87.5145 45.2851 87.3489 45.7987 87.0454C46.3123 86.7418 46.3819 86.0795 46.0053 85.4999C45.6275 84.9204 45.0283 84.0649 45.5419 82.8507C46.0555 81.6364 46.2438 77.9108 46.2438 77.9108C46.2438 77.9108 46.0042 75.3719 46.2438 74.7924C46.4835 74.2129 45.9699 73.0538 45.9699 73.0538C45.9699 73.0538 46.1411 71.6188 46.455 70.9565C46.7689 70.2941 47.0257 66.7894 47.0257 66.7894C47.0257 66.7894 47.5963 65.2991 47.5963 64.3332C47.5963 63.3674 46.7118 61.0492 48.0244 60.4421C48.0244 60.4421 48.595 60.9388 48.3668 62.9258C48.3668 62.9258 49.023 65.2439 49.023 65.9615C49.023 66.679 49.5081 69.2731 49.5081 69.2731C49.5081 69.2731 49.5652 70.101 49.7649 70.4045C49.9646 70.7081 49.7649 71.536 49.7649 71.536C49.7649 71.536 50.5068 72.2259 50.3071 72.6675C50.1073 73.109 50.3413 74.1047 50.3413 74.1047L50.1644 80.2842C50.1644 80.2842 49.6508 82.9335 50.8492 84.5341C50.8492 84.5341 50.4212 86.8798 50.1644 87.0454C49.9076 87.211 51.106 88.646 51.106 88.646C51.106 88.646 50.7738 89.5756 51.4484 89.6212V91.1573C51.6826 91.5709 52.0039 91.9287 52.39 92.206C53.0178 92.6475 52.761 94.1653 52.761 94.1653C52.761 94.1653 53.5599 96.0971 55.6714 95.6832C57.783 95.2692 58.0683 95.076 57.9542 94.3861C57.9131 94.1344 57.8218 93.6852 57.6905 93.1752C57.4634 92.2888 57.1153 91.2191 56.6987 90.6915C56.0424 89.8603 55.5002 88.1217 55.5002 88.1217C55.5002 88.1217 55.2434 87.5421 55.5002 87.3489C55.757 87.1558 55.6429 86.797 55.6429 86.797C55.6429 86.797 55.8929 86.0795 55.668 85.638C55.4432 85.1964 56.0995 84.2857 56.0995 84.2857L55.8997 80.0358L56.0995 73.8541C56.0995 73.8541 55.2149 72.8331 55.5858 72.2259C55.9568 71.6188 55.1578 70.7633 55.1578 70.7633C55.1578 70.7633 55.0722 70.7357 55.3005 70.0458C55.4371 69.6392 55.4168 69.1963 55.2434 68.8039C55.2434 68.8039 54.7584 67.0929 55.6144 65.7959C55.6144 65.7959 55.9853 64.0849 56.0995 63.2018C56.1782 62.588 56.6713 60.2953 56.9646 58.9541C56.9812 58.8783 56.9971 58.8057 57.0123 58.7364C57.4348 58.7595 57.7544 58.7863 57.7544 58.7863C57.7544 58.7863 57.0981 54.2328 57.7544 53.2946C58.4107 52.3563 57.2408 45.1811 57.2408 45.1811C57.2408 45.1811 56.9612 43.9271 56.7888 42.6477C56.779 42.5748 56.77 42.502 56.7609 42.4292C57.2907 42.3868 57.8225 42.375 58.3536 42.3938C59.7233 42.4766 61.0644 41.9523 61.0929 41.4279C61.1214 40.9036 61.8633 38.8339 61.9775 38.3647C62.0916 37.8956 62.1772 36.2949 61.9775 35.9086Z" fill="url(#paint0_linear)"/>
<path d="M45.3278 89.1459V91.7012C45.3278 91.7012 44.558 92.5804 43.7331 92.8277C42.9083 93.075 43.0733 93.7344 43.0733 93.7344L42.8258 94.806C42.8258 94.806 41.781 95.7402 41.0387 96.0424C40.2963 96.3447 39.0316 96.0974 38.0418 95.3281C37.6239 95.0038 37.7888 94.3125 38.1661 93.574C38.6575 92.6746 39.2626 91.842 39.9664 91.0967C40.3282 90.7351 40.5273 89.9877 40.6329 89.414C40.711 88.9843 40.7362 88.6513 40.7362 88.6513L45.3278 89.1459Z" fill="#4C495A"/>
<path opacity="0.1" d="M45.3278 91.0527V91.7012C45.3278 91.7012 44.558 92.5804 43.7331 92.8277C42.9083 93.075 43.0733 93.7344 43.0733 93.7344L42.8258 94.806C42.8258 94.806 41.781 95.7402 41.0387 96.0424C40.2963 96.3447 39.0316 96.0974 38.0418 95.3281C37.6239 95.0038 37.7888 94.3125 38.1661 93.574C38.1485 94.3499 38.3783 95.2214 39.499 95.1907C40.7085 95.1523 41.8742 94.7287 42.8258 93.9817C42.8258 93.9817 42.7983 92.1683 44.0631 91.7561C44.5253 91.6036 44.9545 91.3649 45.3278 91.0527V91.0527Z" fill="black"/>
<path d="M55.3908 95.6853C53.3562 96.0974 52.5863 94.1741 52.5863 94.1741C52.5863 94.1741 52.8338 92.6628 52.2289 92.2232C51.8549 91.9444 51.5454 91.5883 51.3216 91.1791V88.6513L53.7961 86.8928L55.1356 88.0776L55.2258 88.1567C55.2258 88.1567 55.7482 89.8877 56.3806 90.7153C56.782 91.2407 57.1174 92.3057 57.3363 93.1882C57.4627 93.696 57.5507 94.1433 57.5903 94.3939C57.7003 95.0808 57.4253 95.2731 55.3908 95.6853Z" fill="#4C495A"/>
<path opacity="0.1" d="M55.3908 95.6853C53.3562 96.0974 52.5863 94.1741 52.5863 94.1741C52.5863 94.1741 52.8338 92.6628 52.2289 92.2232C51.8549 91.9444 51.5454 91.5883 51.3216 91.1791V90.1999C51.7142 90.6142 52.4544 91.4165 52.6138 91.7561C52.8338 92.2232 52.8613 93.9268 53.8786 94.229C54.8959 94.5313 56.8755 94.806 57.0404 94.0367C57.109 93.7443 57.2082 93.4599 57.3363 93.1882C57.4627 93.696 57.5507 94.1433 57.5903 94.3939C57.7003 95.0808 57.4253 95.2731 55.3908 95.6853Z" fill="black"/>
<path opacity="0.1" d="M40.7362 88.6513L45.3278 89.1459V90.4966C44.8098 90.8032 44.0675 91.1285 43.6507 90.7944C43.0348 90.302 41.2037 89.6767 40.6329 89.414C40.711 88.9843 40.7362 88.6513 40.7362 88.6513Z" fill="black"/>
<path opacity="0.1" d="M55.2258 88.3765C54.5934 88.1567 53.4662 89.1184 51.9815 89.7229C51.7751 89.82 51.5497 89.8703 51.3216 89.8701V88.6513L53.7961 86.8928L55.1356 88.0776C55.1563 88.1798 55.1865 88.2799 55.2258 88.3765Z" fill="black"/>
<path d="M56.848 58.125C56.848 58.125 56.7611 58.5294 56.6368 59.1163C56.3542 60.4517 55.8791 62.7344 55.8032 63.3455C55.6932 64.2247 55.3358 65.9283 55.3358 65.9283C54.5109 67.2197 54.9783 68.9232 54.9783 68.9232C55.1455 69.3152 55.1651 69.7544 55.0333 70.1597C54.8134 70.8466 54.8959 70.874 54.8959 70.874C54.8959 70.874 55.6657 71.7258 55.3083 72.3303C54.9508 72.9348 55.8032 73.9514 55.8032 73.9514L55.6107 80.1061L55.8032 84.3375C55.8032 84.3375 55.1708 85.2442 55.3875 85.6838C55.6041 86.1235 55.3633 86.8378 55.3633 86.8378C55.3633 86.8378 55.4732 87.195 55.2258 87.3874C54.9783 87.5797 55.2258 88.1567 55.2258 88.1567C54.5934 87.9369 53.4662 88.8986 51.9815 89.5031C50.4968 90.1075 50.9917 88.6788 50.9917 88.6788C50.9917 88.6788 49.8369 87.25 50.0843 87.0851C50.3318 86.9203 50.7442 84.5848 50.7442 84.5848C49.5894 82.9911 50.0843 80.3534 50.0843 80.3534L50.2548 74.2009C50.2548 74.2009 50.0294 73.2095 50.2218 72.7699C50.4143 72.3303 49.6994 71.6434 49.6994 71.6434C49.6994 71.6434 49.8919 70.8191 49.6994 70.5168C49.507 70.2146 49.452 69.3903 49.452 69.3903C49.452 69.3903 48.9846 66.8075 48.9846 66.0931C48.9846 65.3788 48.3522 63.0707 48.3522 63.0707C48.5722 61.0924 48.0223 60.5979 48.0223 60.5979C46.7575 61.2023 47.6099 63.5104 47.6099 64.472C47.6099 65.4337 47.06 66.9174 47.06 66.9174C47.06 66.9174 46.8125 70.4069 46.5101 71.0664C46.2076 71.7258 46.0427 73.1546 46.0427 73.1546C46.0427 73.1546 46.5376 74.3086 46.3066 74.8856C46.0757 75.4626 46.3066 77.9904 46.3066 77.9904C46.3066 77.9904 46.1252 81.6998 45.6303 82.9087C45.1354 84.1177 45.7127 84.9695 46.0768 85.5465C46.4397 86.1235 46.3726 86.7829 45.8777 87.0851C45.3828 87.3874 45.5203 87.5522 45.9052 88.0193C46.2901 88.4864 45.9052 89.8877 45.9052 89.8877C45.9052 89.8877 44.338 91.1242 43.6507 90.5746C42.9633 90.0251 40.7638 89.3107 40.4888 89.1184C40.2139 88.9261 40.2963 88.3765 40.7088 87.9369C41.1212 87.4973 40.9012 87.4423 40.9012 87.4423C39.8014 87.1126 40.4888 86.096 40.4888 86.096C40.4888 86.096 41.6161 84.887 41.1487 84.2276C40.6813 83.5681 40.6813 81.6448 40.9837 81.2601C41.2861 80.8755 40.9287 79.7764 40.9287 79.7764L40.2722 74.4185C40.2722 74.4185 40.2414 73.292 40.5988 73.1546C40.9562 73.0172 41.2312 72.6875 40.9562 72.1105C40.6813 71.5335 41.2586 70.2421 41.2586 70.2421C41.5886 69.8025 41.0112 67.9066 40.3238 66.8625C39.6365 65.8184 40.0489 62.7685 40.0489 62.7685C40.0489 62.7685 39.5265 62.0266 39.5265 61.6694C39.5214 61.4401 39.465 61.2148 39.3615 61.01C39.124 60.633 39.1702 59.7802 39.2735 59.0328C39.3736 58.3096 39.5265 57.6853 39.5265 57.6853L56.848 58.125Z" fill="#5F5D7E"/>
<path d="M51.4591 26.9942L46.0427 28.2581C46.0427 28.2581 43.3757 26.005 44.0356 24.7961C44.2621 24.3806 44.3622 23.6717 44.3963 22.9222C44.4227 22.3364 44.4084 21.7242 44.3831 21.2065C44.3446 20.4581 44.283 19.9052 44.283 19.9052C44.283 19.9052 49.8369 16.7729 49.6444 19.9052C49.6053 20.4269 49.6175 20.9511 49.6807 21.4703C49.72 21.8398 49.8278 22.1987 49.9986 22.5287C50.2955 23.0573 50.6617 23.065 50.6617 23.065L51.4591 26.9942Z" fill="#FDC2CC"/>
<path opacity="0.1" d="M49.6807 21.4703C48.898 22.0314 47.948 22.3108 46.9858 22.2629C46.0237 22.215 45.1062 21.8426 44.3831 21.2065C44.3446 20.4581 44.283 19.9052 44.283 19.9052C44.283 19.9052 49.8369 16.7729 49.6444 19.9052C49.6053 20.4269 49.6175 20.9511 49.6807 21.4703V21.4703Z" fill="black"/>
<path d="M47.1974 22.1583C49.551 22.1583 51.459 20.2516 51.459 17.8995C51.459 15.5474 49.551 13.6406 47.1974 13.6406C44.8437 13.6406 42.9357 15.5474 42.9357 17.8995C42.9357 20.2516 44.8437 22.1583 47.1974 22.1583Z" fill="#FDC2CC"/>
<path opacity="0.1" d="M51.4591 26.9942L46.0427 28.2581C46.0427 28.2581 43.3757 26.005 44.0356 24.796C44.2621 24.3806 44.3622 23.6717 44.3963 22.9222C44.5159 23.5739 44.866 24.161 45.3828 24.5762C46.62 25.4005 46.4276 26.4172 46.4276 26.4172L48.6546 26.3347C48.5172 25.428 49.342 24.9334 49.6169 24.8235C49.8919 24.7136 49.7544 24.219 49.7544 24.219L49.9986 22.5287C50.2955 23.0573 50.6617 23.065 50.6617 23.065L51.4591 26.9942Z" fill="black"/>
<path opacity="0.1" d="M56.848 58.125C56.848 58.125 56.7611 58.5294 56.6368 59.1163C56.0385 59.0845 55.2478 59.0614 54.8959 59.1416C54.291 59.279 51.8715 59.3339 51.8715 59.3339L45.8777 59.5461V59.3614C45.1883 59.367 44.4997 59.4128 43.8156 59.4988C42.7983 59.6362 41.2037 59.4438 40.1864 59.279C39.8733 59.2341 39.5667 59.1515 39.2736 59.0328C39.3736 58.3096 39.5265 57.6853 39.5265 57.6853L56.848 58.125Z" fill="black"/>
<path d="M56.3805 40.6774C56.2937 41.1907 56.3574 42.0414 56.4674 42.881C56.6335 44.1549 56.9029 45.4034 56.9029 45.4034C56.9029 45.4034 58.0302 52.5473 57.3978 53.4815C56.7655 54.4157 57.3978 58.9493 57.3978 58.9493C57.3978 58.9493 55.5007 58.7844 54.8958 58.9218C54.291 59.0592 51.8715 59.1141 51.8715 59.1141L45.8777 59.3263V59.1416C45.1882 59.1472 44.4997 59.193 43.8156 59.279C42.7983 59.4164 41.2037 59.224 40.1864 59.0592C39.1691 58.8943 38.7566 58.5646 38.8666 58.3997C38.9766 58.2349 38.7566 53.7287 38.7566 53.7287L38.7292 50.0744C38.7292 50.0744 38.7017 47.4916 39.334 46.9146C39.5925 46.6794 39.8047 45.81 39.9664 44.8648C40.1985 43.4965 40.3238 41.9688 40.3238 41.9688L36.1447 30.7859L36.0622 30.5661C36.0622 30.5661 37.2719 28.6977 37.0795 27.791C36.887 26.8843 38.2068 26.0874 38.2068 26.0874C38.2068 26.0874 40.7087 24.9884 40.8737 24.6587C41.0387 24.329 42.7708 24.2465 42.7708 24.2465C42.7708 24.2465 43.7606 23.7245 43.9311 23.386C43.9726 23.2914 44.036 23.2081 44.1162 23.1429C44.1963 23.0777 44.2908 23.0326 44.3919 23.0112C44.5084 23.671 44.8605 24.2661 45.3828 24.6862C46.62 25.5104 46.4276 26.5271 46.4276 26.5271L48.6546 26.4446C48.5171 25.5379 49.342 25.0433 49.6169 24.9334C49.8919 24.8235 49.7544 24.329 49.7544 24.329L50.0118 22.5496C50.1305 22.2539 50.9642 23.386 50.9642 23.386C50.9642 23.386 53.0812 24.1091 53.2187 24.1641C53.3562 24.2191 55.1433 24.7686 55.1433 24.7686C55.1433 24.7686 57.3428 26.1974 57.3428 26.5546C57.3428 26.9117 58.5526 28.8351 58.5526 28.8351C58.5526 28.8351 58.5383 28.912 58.5119 29.0527C58.2326 30.5672 56.5818 39.4959 56.3805 40.6774Z" fill="#DD2C00"/>
<path d="M47.5824 36.2262C47.5824 36.2262 42.8258 34.9623 42.3584 34.6601C41.891 34.3578 39.1416 36.1163 42.4959 38.5068C42.4959 38.5068 46.5976 39.3586 47.6949 38.5068C48.7921 37.655 47.5824 36.2262 47.5824 36.2262Z" fill="#FDC2CC"/>
<path opacity="0.1" d="M57.8653 28.6977L58.4426 28.7252L60.1473 33.2863C60.1473 33.2863 61.1646 35.6767 61.357 36.0614C61.5495 36.4461 61.467 38.0397 61.357 38.5068C61.2471 38.9739 60.5322 41.0346 60.5047 41.5567C60.4772 42.0787 59.185 42.6008 57.8653 42.5183C56.5455 42.4359 53.4662 42.8481 53.4662 42.8481C53.4662 42.8481 50.1775 42.5045 48.1598 43.535C48.1598 43.535 46.8675 40.8698 47.005 35.8965C47.005 35.8965 49.287 35.7591 49.8644 35.9789C50.4418 36.1988 53.2462 36.8307 53.6036 36.501C53.9611 36.1713 55.5832 37.1055 55.5832 37.1055C55.6658 36.9243 55.7085 36.7275 55.7085 36.5285C55.7085 36.3294 55.6658 36.1327 55.5832 35.9515C55.3083 35.292 54.8409 33.2313 55.4458 32.5719C56.0506 31.9124 57.8653 28.6977 57.8653 28.6977Z" fill="black"/>
<path opacity="0.1" d="M56.4674 42.881C55.1026 42.9733 53.5761 43.1778 53.5761 43.1778C53.5761 43.1778 50.2878 42.8338 48.2697 43.8647C48.2697 43.8647 46.9774 41.1995 47.1149 36.2262C47.1149 36.2262 49.397 36.0889 49.9743 36.3087C50.5517 36.5285 53.3561 37.1604 53.7136 36.8307C54.071 36.501 55.6932 37.4352 55.6932 37.4352C55.7757 37.254 55.8184 37.0573 55.8184 36.8582C55.8184 36.6591 55.7757 36.4624 55.6932 36.2812C55.4182 35.6218 54.9508 33.561 55.5557 32.9016C56.1606 32.2421 57.9752 29.0274 57.9752 29.0274L58.5119 29.0527C58.2326 30.5672 56.5818 39.4959 56.3805 40.6774C56.2936 41.1907 56.3574 42.0413 56.4674 42.881Z" fill="black"/>
<path d="M57.9752 28.8076L58.5526 28.8351L60.2572 33.3962C60.2572 33.3962 61.2745 35.7866 61.467 36.1713C61.6594 36.556 61.577 38.1496 61.467 38.6167C61.357 39.0838 60.6421 41.1445 60.6147 41.6666C60.5872 42.1886 59.2949 42.7107 57.9752 42.6283C56.6555 42.5458 53.5761 42.958 53.5761 42.958C53.5761 42.958 50.2874 42.6145 48.2697 43.6449C48.2697 43.6449 46.9774 40.9797 47.1149 36.0064C47.1149 36.0064 49.3969 35.869 49.9743 36.0889C50.5517 36.3087 53.3561 36.9406 53.7136 36.6109C54.071 36.2812 55.6932 37.2154 55.6932 37.2154C55.7757 37.0342 55.8184 36.8375 55.8184 36.6384C55.8184 36.4393 55.7757 36.2426 55.6932 36.0614C55.4182 35.4019 54.9508 33.3412 55.5557 32.6818C56.1606 32.0223 57.9752 28.8076 57.9752 28.8076Z" fill="#DD2C00"/>
<path d="M52.1664 38.9001L52.8524 39.3246L56.6755 33.1542L55.9895 32.7297L52.1664 38.9001Z" fill="#DFE6F5"/>
<path d="M58.6359 32.3186C59.3115 31.2281 59.2388 29.9601 58.4734 29.4865C57.7081 29.0129 56.5399 29.513 55.8642 30.6035C55.1886 31.694 55.2613 32.962 56.0267 33.4356C56.792 33.9091 57.9602 33.4091 58.6359 32.3186Z" fill="#DFE6F5"/>
<path opacity="0.1" d="M58.2448 32.0766C58.7298 31.2938 58.6776 30.3837 58.1282 30.0438C57.5788 29.7038 56.7403 30.0628 56.2553 30.8455C55.7704 31.6283 55.8226 32.5384 56.3719 32.8784C56.9213 33.2183 57.7598 32.8593 58.2448 32.0766Z" fill="black"/>
<path d="M50.2124 42.0538L50.8984 42.4783L53.2772 38.639L52.5912 38.2145L50.2124 42.0538Z" fill="#53526B"/>
<path d="M46.1802 42.326L47.8573 41.8589C47.8573 41.8589 56.1331 42.0787 53.3562 38.6717C53.3562 38.6717 51.899 37.2704 48.8471 38.3969C45.7953 39.5234 44.9429 39.6608 44.9429 39.6608L46.1802 42.326Z" fill="#FDC2CC"/>
<path opacity="0.1" d="M44.9428 27.9558C45.1251 27.9558 45.2728 27.8082 45.2728 27.6261C45.2728 27.444 45.1251 27.2964 44.9428 27.2964C44.7606 27.2964 44.6129 27.444 44.6129 27.6261C44.6129 27.8082 44.7606 27.9558 44.9428 27.9558Z" fill="black"/>
<path opacity="0.1" d="M50.6068 27.7635C50.789 27.7635 50.9367 27.6159 50.9367 27.4338C50.9367 27.2517 50.789 27.1041 50.6068 27.1041C50.4246 27.1041 50.2769 27.2517 50.2769 27.4338C50.2769 27.6159 50.4246 27.7635 50.6068 27.7635Z" fill="black"/>
<path d="M44.9428 27.8459C45.1251 27.8459 45.2728 27.6983 45.2728 27.5162C45.2728 27.3341 45.1251 27.1865 44.9428 27.1865C44.7606 27.1865 44.6129 27.3341 44.6129 27.5162C44.6129 27.6983 44.7606 27.8459 44.9428 27.8459Z" fill="white"/>
<path opacity="0.1" d="M45.4103 32.5169C45.5925 32.5169 45.7402 32.3693 45.7402 32.1872C45.7402 32.0051 45.5925 31.8575 45.4103 31.8575C45.228 31.8575 45.0803 32.0051 45.0803 32.1872C45.0803 32.3693 45.228 32.5169 45.4103 32.5169Z" fill="black"/>
<path opacity="0.1" d="M50.7717 32.1872C50.9539 32.1872 51.1016 32.0396 51.1016 31.8575C51.1016 31.6754 50.9539 31.5278 50.7717 31.5278C50.5895 31.5278 50.4418 31.6754 50.4418 31.8575C50.4418 32.0396 50.5895 32.1872 50.7717 32.1872Z" fill="black"/>
<path d="M45.4103 32.407C45.5925 32.407 45.7402 32.2594 45.7402 32.0773C45.7402 31.8952 45.5925 31.7476 45.4103 31.7476C45.228 31.7476 45.0803 31.8952 45.0803 32.0773C45.0803 32.2594 45.228 32.407 45.4103 32.407Z" fill="white"/>
<path opacity="0.1" d="M50.6342 48.0979C50.8164 48.0979 50.9641 47.9503 50.9641 47.7682C50.9641 47.5861 50.8164 47.4385 50.6342 47.4385C50.452 47.4385 50.3043 47.5861 50.3043 47.7682C50.3043 47.9503 50.452 48.0979 50.6342 48.0979Z" fill="black"/>
<path opacity="0.1" d="M46.292 48.0979C46.4742 48.0979 46.622 47.9503 46.622 47.7682C46.622 47.5861 46.4742 47.4385 46.292 47.4385C46.1098 47.4385 45.9621 47.5861 45.9621 47.7682C45.9621 47.9503 46.1098 48.0979 46.292 48.0979Z" fill="black"/>
<path d="M50.6342 47.988C50.8164 47.988 50.9641 47.8404 50.9641 47.6583C50.9641 47.4762 50.8164 47.3286 50.6342 47.3286C50.452 47.3286 50.3043 47.4762 50.3043 47.6583C50.3043 47.8404 50.452 47.988 50.6342 47.988Z" fill="white"/>
<path opacity="0.1" d="M46.6219 53.6188C46.8041 53.6188 46.9519 53.4712 46.9519 53.2891C46.9519 53.107 46.8041 52.9594 46.6219 52.9594C46.4397 52.9594 46.292 53.107 46.292 53.2891C46.292 53.4712 46.4397 53.6188 46.6219 53.6188Z" fill="black"/>
<path opacity="0.1" d="M50.7717 53.2891C50.9539 53.2891 51.1016 53.1415 51.1016 52.9594C51.1016 52.7773 50.9539 52.6297 50.7717 52.6297C50.5895 52.6297 50.4418 52.7773 50.4418 52.9594C50.4418 53.1415 50.5895 53.2891 50.7717 53.2891Z" fill="black"/>
<path d="M46.6219 53.5089C46.8041 53.5089 46.9519 53.3613 46.9519 53.1792C46.9519 52.9971 46.8041 52.8495 46.6219 52.8495C46.4397 52.8495 46.292 52.9971 46.292 53.1792C46.292 53.3613 46.4397 53.5089 46.6219 53.5089Z" fill="white"/>
<path d="M46.292 47.988C46.4742 47.988 46.622 47.8404 46.622 47.6583C46.622 47.4762 46.4742 47.3286 46.292 47.3286C46.1098 47.3286 45.9621 47.4762 45.9621 47.6583C45.9621 47.8404 46.1098 47.988 46.292 47.988Z" fill="white"/>
<path d="M50.7717 53.1792C50.9539 53.1792 51.1016 53.0316 51.1016 52.8495C51.1016 52.6674 50.9539 52.5198 50.7717 52.5198C50.5895 52.5198 50.4418 52.6674 50.4418 52.8495C50.4418 53.0316 50.5895 53.1792 50.7717 53.1792Z" fill="white"/>
<path d="M50.6068 27.6536C50.789 27.6536 50.9367 27.506 50.9367 27.3239C50.9367 27.1418 50.789 26.9942 50.6068 26.9942C50.4246 26.9942 50.2769 27.1418 50.2769 27.3239C50.2769 27.506 50.4246 27.6536 50.6068 27.6536Z" fill="white"/>
<path d="M50.7717 32.0773C50.9539 32.0773 51.1016 31.9297 51.1016 31.7476C51.1016 31.5655 50.9539 31.4179 50.7717 31.4179C50.5895 31.4179 50.4418 31.5655 50.4418 31.7476C50.4418 31.9297 50.5895 32.0773 50.7717 32.0773Z" fill="white"/>
<path opacity="0.1" d="M51.2666 43.3152C51.2666 43.3152 51.3216 50.8437 51.4866 52.19C51.4866 52.19 51.5464 43.6701 51.2666 43.3152Z" fill="black"/>
<path opacity="0.1" d="M52.6689 46.8047C52.5555 46.8047 54.9234 55.6246 55.0334 56.2566C55.1433 56.8885 53.3287 46.8047 52.6689 46.8047Z" fill="black"/>
<path opacity="0.1" d="M54.5385 45.3759C54.5385 45.4583 55.8582 50.1568 56.518 50.4041C57.1779 50.6514 54.5385 45.3759 54.5385 45.3759Z" fill="black"/>
<path opacity="0.1" d="M59.7348 36.2262C59.7348 36.2262 56.9304 36.3511 56.8479 36.7558C56.7655 37.1604 59.7348 36.2262 59.7348 36.2262Z" fill="black"/>
<path opacity="0.1" d="M54.7859 72.0555C54.7859 72.0555 52.7788 72.9073 53.0812 72.9622C53.3837 73.0172 54.7859 72.0555 54.7859 72.0555Z" fill="black"/>
<path opacity="0.1" d="M50.6343 70.7916C50.5561 70.6159 51.9815 71.506 51.9815 71.6159C51.9815 71.7258 50.7442 71.0389 50.6343 70.7916Z" fill="black"/>
<path opacity="0.1" d="M52.5038 73.6766C52.5038 73.6766 54.071 73.5976 54.181 74.2004C54.291 74.8032 52.5038 73.6766 52.5038 73.6766Z" fill="black"/>
<path opacity="0.1" d="M41.2311 73.6732C41.2311 73.6732 42.9358 73.3401 43.0733 73.6732C43.2107 74.0063 41.2311 73.6732 41.2311 73.6732Z" fill="black"/>
<path opacity="0.1" d="M41.8635 84.0352C41.8635 84.0352 41.9753 85.4365 41.562 85.7662C41.1487 86.096 41.8635 84.0352 41.8635 84.0352Z" fill="black"/>
<path opacity="0.1" d="M41.6553 87.0027C42.1935 87.0576 45.0254 86.5631 44.9979 87.0027C44.9704 87.4423 41.6553 87.0027 41.6553 87.0027Z" fill="black"/>
<path opacity="0.1" d="M54.6484 85.2992C54.6484 85.2992 53.6826 85.1508 53.918 85.802L54.6484 85.2992Z" fill="black"/>
<path opacity="0.1" d="M36.6946 30.4562H36.1722L35.3748 33.3687C35.3748 33.3687 35.0999 34.3853 34.8249 34.6326C34.55 34.8799 35.0724 37.133 35.0724 37.133C35.0724 37.133 34.77 38.7266 34.5225 39.1388C34.2751 39.5509 34.9074 40.5675 34.9074 40.5675L36.1722 43.535L39.5265 44.4142C39.5265 44.4142 45.4378 45.7056 45.7127 45.898C45.9877 46.0903 46.2351 45.8155 46.4276 44.0296C46.62 42.2436 47.1424 38.7816 47.5549 38.6167C47.5549 38.6167 44.2555 38.9739 43.9806 38.9189C43.7056 38.864 42.3859 38.9464 42.3859 38.9464C42.3859 38.9464 40.6538 38.8365 40.3788 39.0014C40.1039 39.1662 40.7362 38.2033 40.7362 38.2033C40.852 37.7624 40.852 37.2991 40.7362 36.8582C40.5438 36.1163 40.4338 27.7086 36.6946 30.4562Z" fill="black"/>
<path opacity="0.1" d="M47.4448 38.9464C47.0324 39.1113 46.51 42.5733 46.3176 44.3593C46.1251 46.1452 45.8777 46.42 45.6027 46.2277C45.3795 46.0716 41.439 45.1902 39.9664 44.8648C40.1984 43.4965 40.3238 41.9688 40.3238 41.9688L36.1447 30.7859H36.5846C40.3238 28.0383 40.4338 36.4461 40.6262 37.1879C40.742 37.6289 40.742 38.0922 40.6262 38.5332C40.6262 38.5332 39.9939 39.4959 40.2688 39.3311C40.5438 39.1662 42.2759 39.2761 42.2759 39.2761C42.2759 39.2761 43.5956 39.1937 43.8706 39.2487C44.1455 39.3036 47.4448 38.9464 47.4448 38.9464Z" fill="black"/>
<path d="M36.5846 30.5661H36.0622L35.2649 33.4786C35.2649 33.4786 34.9899 34.4952 34.715 34.7425C34.44 34.9898 34.9624 37.2429 34.9624 37.2429C34.9624 37.2429 34.66 38.8365 34.4125 39.2486C34.1651 39.6608 34.7975 40.6774 34.7975 40.6774L36.0622 43.6449L39.4165 44.5241C39.4165 44.5241 45.3278 45.8155 45.6027 46.0079C45.8777 46.2002 46.1251 45.9254 46.3176 44.1395C46.5101 42.3535 47.0324 38.8915 47.4449 38.7266C47.4449 38.7266 44.1455 39.0838 43.8706 39.0289C43.5957 38.9739 42.2759 39.0563 42.2759 39.0563C42.2759 39.0563 40.5438 38.9464 40.2688 39.1113C39.9939 39.2761 40.6263 38.3132 40.6263 38.3132C40.742 37.8723 40.742 37.409 40.6263 36.9681C40.4338 36.2262 40.3238 27.8184 36.5846 30.5661Z" fill="#DD2C00"/>
<path opacity="0.1" d="M38.3718 40.5126C38.3718 40.5126 36.8596 43.3701 36.5846 43.0404C36.3097 42.7107 38.3718 40.5126 38.3718 40.5126Z" fill="black"/>
<path opacity="0.1" d="M36.8045 38.8854C36.8045 38.8854 35.4023 40.0455 36.0622 40.3477C36.722 40.65 36.8045 38.8854 36.8045 38.8854Z" fill="black"/>
<path opacity="0.1" d="M38.1243 37.4627C38.2343 37.4902 40.1589 37.8722 40.1864 38.0384C40.2139 38.2045 38.1243 37.4627 38.1243 37.4627Z" fill="black"/>
<path opacity="0.1" d="M51.4711 17.3345C51.4114 17.3556 51.3604 17.396 51.3263 17.4494C51.2922 17.5028 51.277 17.566 51.2831 17.6291C51.1709 17.728 51.0136 17.6115 50.9224 17.4851C50.83 17.3598 50.7255 17.2048 50.5858 17.2224C50.5195 17.2436 50.4551 17.2704 50.3934 17.3027C50.1734 17.373 49.9876 17.1147 49.8644 16.8883C49.6499 16.4916 49.4355 16.0952 49.221 15.6991C48.791 15.9486 48.2829 15.687 47.8562 15.4288C47.4295 15.1705 46.9214 14.9078 46.4903 15.1573C45.8579 15.5222 45.8348 16.7388 45.1793 17.0389C44.9682 17.1356 44.7229 17.1147 44.5272 17.2477C44.3336 17.3796 44.2291 17.6335 44.1422 17.8764C44.1101 18.0146 44.0346 18.139 43.9267 18.2314C43.8581 18.2672 43.7819 18.2857 43.7045 18.2852C43.5102 18.3182 43.3104 18.2902 43.1327 18.205C43.0395 18.1465 42.9691 18.0579 42.9331 17.954C42.8971 17.8501 42.8977 17.737 42.9347 17.6335C42.9399 17.6225 42.9458 17.6119 42.9523 17.6016C43.0227 17.5165 43.086 17.4257 43.1414 17.3301C43.2074 17.1554 43.1129 16.9521 43.1338 16.763C43.1678 16.4399 43.5099 16.2696 43.5682 15.9519C43.5924 15.8277 43.5671 15.6947 43.5902 15.5695C43.5934 15.553 43.5978 15.5369 43.6034 15.5211L43.4021 15.6596C43.6276 15.3969 43.7408 15.032 43.9058 14.7133C44.0891 14.3643 44.3412 14.0561 44.6471 13.8073C44.9529 13.5585 45.3061 13.3743 45.6852 13.2658C46.4023 13.057 47.16 13.1142 47.8837 13.2911C48.5718 13.4624 49.231 13.7339 49.8402 14.0967C50.0578 14.2133 50.2511 14.3704 50.4099 14.5594C50.5428 14.7554 50.6559 14.9642 50.7475 15.1826C50.9608 15.6244 51.5437 16.0332 51.0796 16.0948C50.6936 16.1465 51.0455 16.4168 51.2479 16.5993C51.2935 16.635 51.3329 16.6781 51.3645 16.7267C51.3981 16.7963 51.4135 16.8732 51.4092 16.9502C51.405 17.0273 51.3813 17.1021 51.3403 17.1675C51.2622 17.2664 51.5789 17.2862 51.4711 17.3345Z" fill="black"/>
<path d="M51.4712 17.2246C51.4114 17.2457 51.3604 17.2861 51.3263 17.3395C51.2922 17.3929 51.277 17.4561 51.2831 17.5192C51.1709 17.6181 51.0136 17.5016 50.9224 17.3752C50.83 17.2499 50.7255 17.0949 50.5858 17.1125C50.5195 17.1337 50.4551 17.1605 50.3934 17.1928C50.1734 17.2631 49.9876 17.0048 49.8644 16.7784C49.6499 16.3817 49.4355 15.9853 49.221 15.5892C48.791 15.8387 48.2829 15.5771 47.8562 15.3189C47.4295 15.0606 46.9214 14.7979 46.4903 15.0474C45.8579 15.4123 45.8348 16.6289 45.1793 16.929C44.9682 17.0257 44.7229 17.0048 44.5272 17.1378C44.3336 17.2697 44.2291 17.5236 44.1422 17.7665C44.1101 17.9047 44.0346 18.0291 43.9267 18.1215C43.8582 18.1573 43.7819 18.1758 43.7045 18.1753C43.5102 18.2083 43.3104 18.1803 43.1327 18.0951C43.0395 18.0366 42.9691 17.948 42.9331 17.8441C42.8971 17.7402 42.8977 17.6271 42.9347 17.5236C42.9399 17.5126 42.9458 17.502 42.9523 17.4917C43.0227 17.4066 43.086 17.3158 43.1414 17.2202C43.2074 17.0455 43.1129 16.8422 43.1338 16.6531C43.1678 16.33 43.5099 16.1596 43.5682 15.842C43.5924 15.7178 43.5671 15.5848 43.5902 15.4595C43.5934 15.4431 43.5978 15.427 43.6034 15.4112L43.4021 15.5497C43.6276 15.287 43.7408 14.9221 43.9058 14.6034C44.0891 14.2544 44.3412 13.9462 44.6471 13.6974C44.9529 13.4486 45.3061 13.2644 45.6852 13.1559C46.4023 12.9471 47.16 13.0042 47.8837 13.1812C48.5718 13.3525 49.231 13.624 49.8402 13.9868C50.0578 14.1034 50.2511 14.2605 50.4099 14.4495C50.5429 14.6455 50.656 14.8543 50.7475 15.0727C50.9609 15.5145 51.5437 15.9233 51.0796 15.9849C50.6936 16.0365 51.0455 16.3069 51.2479 16.4894C51.2936 16.5251 51.3329 16.5682 51.3645 16.6168C51.3981 16.6864 51.4135 16.7632 51.4092 16.8403C51.405 16.9174 51.3813 16.9922 51.3403 17.0576C51.2622 17.1565 51.5789 17.1763 51.4712 17.2246Z" fill="#865A61"/>
<path opacity="0.1" d="M51.2479 16.4894L51.2039 16.9521C51.2039 16.9521 46.5892 11.1073 42.9996 17.7071C42.9996 17.7071 42.982 17.6269 42.9523 17.4917C43.0227 17.4066 43.086 17.3158 43.1414 17.2202C43.2074 17.0455 43.1128 16.8422 43.1337 16.6531C43.1678 16.33 43.5099 16.1596 43.5681 15.842C43.5923 15.7178 43.567 15.5848 43.5901 15.4595C43.5934 15.4431 43.5978 15.427 43.6033 15.4112L43.4021 15.5497C43.6275 15.287 43.7408 14.9221 43.9058 14.6034C44.089 14.2544 44.3412 13.9462 44.6471 13.6974C44.9529 13.4486 45.3061 13.2644 45.6852 13.1559C46.4023 12.9471 47.16 13.0042 47.8837 13.1812C48.5718 13.3525 49.231 13.624 49.8402 13.9868C50.0578 14.1034 50.2511 14.2605 50.4099 14.4495C50.5428 14.6455 50.6559 14.8543 50.7475 15.0727C50.9608 15.5145 51.5437 15.9233 51.0796 15.9849C50.6936 16.0365 51.0455 16.3069 51.2479 16.4894Z" fill="black"/>
<g opacity="0.1">
<path opacity="0.1" d="M51.3617 17.1648C51.339 17.1903 51.3224 17.2208 51.3133 17.2538C51.3043 17.2868 51.3029 17.3214 51.3094 17.355C51.1972 17.4539 51.04 17.3374 50.9487 17.211C50.8563 17.0857 50.7518 16.9308 50.6121 16.9483C50.5458 16.9695 50.4814 16.9963 50.4197 17.0286C50.1997 17.0989 50.0139 16.8406 49.8907 16.6142C49.6762 16.2175 49.4618 15.8211 49.2473 15.4251C48.8173 15.6745 48.3092 15.413 47.8825 15.1547C47.4558 14.8964 46.9477 14.6337 46.5166 14.8832C45.8842 15.2481 45.8611 16.4648 45.2056 16.7648C44.9945 16.8615 44.7492 16.8406 44.5535 16.9736C44.3599 17.1055 44.2554 17.3594 44.1685 17.6023C44.1364 17.7406 44.0609 17.8649 43.953 17.9573C43.8845 17.9931 43.8082 18.0116 43.7308 18.0111C43.5365 18.0441 43.3367 18.0161 43.159 17.9309C43.0524 17.8603 42.976 17.7526 42.9446 17.6288C42.9228 17.7272 42.9316 17.83 42.9699 17.9233C43.0083 18.0166 43.0742 18.096 43.159 18.1507C43.3367 18.2359 43.5365 18.264 43.7308 18.231C43.8082 18.2314 43.8845 18.2129 43.953 18.1771C44.0609 18.0847 44.1364 17.9604 44.1685 17.8221C44.2554 17.5792 44.3599 17.3253 44.5535 17.1934C44.7492 17.0605 44.9945 17.0813 45.2056 16.9846C45.8611 16.6846 45.8842 15.4679 46.5166 15.103C46.9477 14.8535 47.4558 15.1162 47.8825 15.3745C48.3092 15.6328 48.8173 15.8944 49.2473 15.6449C49.4618 16.0405 49.6762 16.4369 49.8907 16.834C50.0139 17.0605 50.1997 17.3187 50.4197 17.2484C50.4814 17.2162 50.5458 17.1893 50.6121 17.1682C50.7518 17.1506 50.8563 17.3055 50.9487 17.4308C51.04 17.5572 51.1972 17.6737 51.3094 17.5748C51.3033 17.5118 51.3185 17.4485 51.3526 17.3951C51.3867 17.3417 51.4377 17.3013 51.4975 17.2803C51.5832 17.2418 51.4008 17.2213 51.3617 17.1648Z" fill="black"/>
<path opacity="0.1" d="M51.0021 16.0667C51.0353 16.0534 51.0703 16.0445 51.1059 16.0405C51.3105 16.0134 51.3114 15.9186 51.2304 15.7834C51.1918 15.8042 51.1495 15.8169 51.1059 15.8207C50.8851 15.8503 50.9061 15.9514 51.0021 16.0667Z" fill="black"/>
<path opacity="0.1" d="M51.4234 16.9873C51.4388 16.9165 51.4384 16.8431 51.4223 16.7724C51.4125 16.8162 51.3935 16.8575 51.3666 16.8934C51.3321 16.937 51.3746 16.9653 51.4234 16.9873Z" fill="black"/>
<path opacity="0.1" d="M43.1665 16.6707C43.1641 16.6833 43.1615 16.6957 43.1601 16.7087C43.1556 16.8077 43.1628 16.9069 43.1816 17.0042C43.1946 16.8929 43.1895 16.7803 43.1665 16.6707V16.6707Z" fill="black"/>
<path opacity="0.1" d="M43.6129 15.3298C43.5612 15.4278 43.4993 15.5201 43.4284 15.6053L43.6059 15.4832C43.605 15.4319 43.6074 15.3807 43.6129 15.3298V15.3298Z" fill="black"/>
</g>
<path d="M42.9993 17.5972C42.9993 17.5972 42.3357 14.6326 42.5469 14.1572C42.5469 14.1572 41.9738 12.9825 41.9738 12.7029C41.946 12.2362 41.8007 11.784 41.5515 11.3884C41.2498 10.9129 40.918 8.70349 42.7279 8.17211C44.5377 7.64072 45.9252 7.16527 46.1363 6.80169C46.3475 6.43811 49.4543 6.66185 50.2989 8.06024C51.1435 9.45862 51.6864 9.17894 51.6864 9.17894C51.6864 9.17894 52.9835 9.99001 52.9835 10.7172C52.9835 11.4443 52.5913 11.8079 52.9835 11.9757C53.3756 12.1435 53.074 15.164 51.3546 15.2479L51.2038 16.8421C51.2038 16.8421 46.5888 10.9968 42.9993 17.5972Z" fill="#DD2C00"/>
<path opacity="0.1" d="M43.197 8.7498C43.197 8.7498 42.7983 11.0853 43.5269 11.8684L43.197 8.7498Z" fill="black"/>
<path opacity="0.1" d="M45.0666 8.214C45.0666 8.214 44.0493 10.7144 44.2968 11.1952L45.0666 8.214Z" fill="black"/>
<path opacity="0.1" d="M45.9464 7.41719C45.9464 7.41719 45.2591 10.6731 45.589 10.9342L45.9464 7.41719Z" fill="black"/>
<path opacity="0.1" d="M47.1287 8.29645C47.1287 8.29645 46.2764 10.3847 46.6201 10.6732L47.1287 8.29645Z" fill="black"/>
<path opacity="0.1" d="M48.7371 8.54373C48.7371 8.54373 47.7336 10.2473 47.9398 10.5495L48.7371 8.54373Z" fill="black"/>
<path opacity="0.1" d="M50.7992 10.2061C50.7992 10.2061 49.7269 10.4946 49.9469 10.838L50.7992 10.2061Z" fill="black"/>
<path opacity="0.1" d="M51.8165 11.9783C51.8165 11.9783 50.8542 12.4454 51.0329 12.6927L51.8165 11.9783Z" fill="black"/>
<path opacity="0.1" d="M42.5469 14.1572C42.5469 14.1572 48.6933 11.6622 51.3547 15.2479C51.3547 15.2479 48.1243 12.5031 42.5469 14.1572Z" fill="black"/>
<path d="M40.3258 34.6577L41.1823 33.7919L43.6037 36.1839L42.7472 37.0498L40.5203 34.85L40.3258 34.6577Z" fill="#53526B"/>
<path d="M34.7072 29.1073C34.7072 29.1073 38.4556 29.4261 41.9444 33.3503L40.4903 34.8203L34.7072 29.1073Z" fill="#DFE6F5"/>
<path d="M45.9505 36.124C45.9505 36.124 42.3477 34.8115 41.9937 34.4976C41.6396 34.1838 39.5571 36.0099 42.0978 38.4922C42.0978 38.4922 45.2046 39.3768 46.0357 38.4922C46.8669 37.6077 45.9505 36.124 45.9505 36.124Z" fill="#FDC2CC"/>
<path d="M92.8072 60.8099H92.0746V77.282H92.8072V60.8099Z" fill="#535461"/>
<path d="M97.4083 77.232L97.3619 77.9739L97.2972 79.0208L97.2703 79.4576L97.2056 80.5057L97.1775 80.9425L97.1128 81.9894L96.3741 93.8994C96.3424 94.4118 96.1163 94.8928 95.742 95.2444C95.3677 95.5961 94.8733 95.7918 94.3595 95.7918H90.5221C90.0085 95.7918 89.5142 95.596 89.1401 95.2443C88.766 94.8927 88.5402 94.4117 88.5087 93.8994L87.7688 81.9894L87.7041 80.9425L87.6772 80.5057L87.6113 79.4576L87.5845 79.0208L87.5197 77.9739L87.4733 77.232C87.4646 77.0896 87.4851 76.947 87.5336 76.8128C87.5821 76.6786 87.6576 76.5558 87.7554 76.4519C87.8532 76.348 87.9712 76.2652 88.1022 76.2086C88.2333 76.152 88.3745 76.1228 88.5173 76.1229H96.3656C96.5083 76.1229 96.6494 76.1521 96.7804 76.2087C96.9113 76.2653 97.0293 76.3481 97.127 76.452C97.2247 76.556 97.3001 76.6788 97.3484 76.8129C97.3968 76.9471 97.4172 77.0897 97.4083 77.232V77.232Z" fill="#65617D"/>
<path d="M97.3618 77.9739L97.2971 79.0208H87.5844L87.5197 77.9739H97.3618Z" fill="#9D9CB5"/>
<path d="M97.2703 79.4576L97.2056 80.5057H87.6773L87.6113 79.4576H97.2703Z" fill="#9D9CB5"/>
<path d="M97.1775 80.9425L97.1128 81.9893H87.7689L87.7042 80.9425H97.1775Z" fill="#9D9CB5"/>
<path d="M86.4017 66.984C90.6656 70.0664 92.4408 74.8878 92.4408 74.8878C92.4408 74.8878 87.303 74.7118 83.0392 71.6294C78.7753 68.5471 77 63.7256 77 63.7256C77 63.7256 82.1378 63.9017 86.4017 66.984Z" fill="#DD2C00"/>
<path d="M77 63.7256C77 63.7256 82.3327 66.6839 84.0435 69.133C85.7543 71.582 92.4408 74.8878 92.4408 74.8878" stroke="#535461" stroke-width="2" stroke-miterlimit="10"/>
<path d="M89.1538 60.7735C91.4746 62.4512 92.4408 65.0755 92.4408 65.0755C92.4408 65.0755 89.6444 64.9797 87.3236 63.302C85.0028 61.6243 84.0365 59 84.0365 59C84.0365 59 86.833 59.0958 89.1538 60.7735Z" fill="#DD2C00"/>
<path d="M84.0365 59C84.0365 59 86.9391 60.6102 87.8702 61.9432C88.8014 63.2761 92.4408 65.0755 92.4408 65.0755" stroke="#535461" stroke-width="2" stroke-miterlimit="10"/>
<path d="M95.8133 64.9419C93.1477 67.8699 92.5838 71.6955 92.5838 71.6955C92.5838 71.6955 96.3418 70.774 99.0074 67.8461C101.673 64.9181 102.237 61.0925 102.237 61.0925C102.237 61.0925 98.479 62.014 95.8133 64.9419Z" fill="#DD2C00"/>
<path d="M102.237 61.0925C102.237 61.0925 98.7647 64.0938 97.8823 66.1617C96.9998 68.2296 92.5838 71.6955 92.5838 71.6955" stroke="#535461" stroke-width="2" stroke-miterlimit="10"/>
<defs>
<linearGradient id="paint0_linear" x1="47.9689" y1="96.1677" x2="47.9689" y2="6.25519" gradientUnits="userSpaceOnUse">
<stop stop-color="#808080" stop-opacity="0.25"/>
<stop offset="0.53514" stop-color="#808080" stop-opacity="0.12"/>
<stop offset="1" stop-color="#808080" stop-opacity="0.1"/>
</linearGradient>
</defs>
</svg>
