<svg width="234" height="40" viewBox="0 0 234 40" fill="none" xmlns="http://www.w3.org/2000/svg">
<path d="M51.392 12.497V19.526H62.546V23.156H51.392V32H47.102V8.9H63.965V12.497H51.392ZM73.9019 14.18C76.4979 14.18 78.4779 14.807 79.8419 16.061C81.2279 17.293 81.9209 19.163 81.9209 21.671V32H78.0269V29.855C77.5209 30.625 76.7949 31.219 75.8489 31.637C74.9249 32.033 73.8029 32.231 72.4829 32.231C71.1629 32.231 70.0079 32.011 69.0179 31.571C68.0279 31.109 67.2579 30.482 66.7079 29.69C66.1799 28.876 65.9159 27.963 65.9159 26.951C65.9159 25.367 66.4989 24.102 67.6649 23.156C68.8529 22.188 70.7119 21.704 73.2419 21.704H77.7959V21.44C77.7959 20.208 77.4219 19.262 76.6739 18.602C75.9479 17.942 74.8589 17.612 73.4069 17.612C72.4169 17.612 71.4379 17.766 70.4699 18.074C69.5239 18.382 68.7209 18.811 68.0609 19.361L66.4439 16.358C67.3679 15.654 68.4789 15.115 69.7769 14.741C71.0749 14.367 72.4499 14.18 73.9019 14.18ZM73.3409 29.228C74.3749 29.228 75.2879 28.997 76.0799 28.535C76.8939 28.051 77.4659 27.369 77.7959 26.489V24.443H73.5389C71.1629 24.443 69.9749 25.224 69.9749 26.786C69.9749 27.534 70.2719 28.128 70.8659 28.568C71.4599 29.008 72.2849 29.228 73.3409 29.228ZM92.6598 32.231C91.2298 32.231 89.8328 32.044 88.4688 31.67C87.1048 31.296 86.0158 30.823 85.2018 30.251L86.7858 27.116C87.5778 27.644 88.5238 28.073 89.6238 28.403C90.7458 28.711 91.8458 28.865 92.9238 28.865C95.3878 28.865 96.6198 28.216 96.6198 26.918C96.6198 26.302 96.3008 25.873 95.6628 25.631C95.0468 25.389 94.0458 25.158 92.6598 24.938C91.2078 24.718 90.0198 24.465 89.0958 24.179C88.1938 23.893 87.4018 23.398 86.7198 22.694C86.0598 21.968 85.7298 20.967 85.7298 19.691C85.7298 18.019 86.4228 16.688 87.8088 15.698C89.2168 14.686 91.1088 14.18 93.4848 14.18C94.6948 14.18 95.9048 14.323 97.1148 14.609C98.3248 14.873 99.3148 15.236 100.085 15.698L98.5008 18.833C97.0048 17.953 95.3218 17.513 93.4518 17.513C92.2418 17.513 91.3178 17.7 90.6798 18.074C90.0638 18.426 89.7558 18.899 89.7558 19.493C89.7558 20.153 90.0858 20.626 90.7458 20.912C91.4278 21.176 92.4728 21.429 93.8808 21.671C95.2888 21.891 96.4438 22.144 97.3458 22.43C98.2478 22.716 99.0178 23.2 99.6558 23.882C100.316 24.564 100.646 25.532 100.646 26.786C100.646 28.436 99.9308 29.756 98.5008 30.746C97.0708 31.736 95.1238 32.231 92.6598 32.231ZM114.791 31.043C114.307 31.439 113.713 31.736 113.009 31.934C112.327 32.132 111.601 32.231 110.831 32.231C108.895 32.231 107.399 31.725 106.343 30.713C105.287 29.701 104.759 28.227 104.759 26.291V17.81H101.855V14.51H104.759V10.484H108.884V14.51H113.603V17.81H108.884V26.192C108.884 27.05 109.093 27.71 109.511 28.172C109.929 28.612 110.534 28.832 111.326 28.832C112.25 28.832 113.02 28.59 113.636 28.106L114.791 31.043ZM133.695 32L128.976 25.235C128.778 25.257 128.481 25.268 128.085 25.268H122.871V32H118.581V8.9H128.085C130.087 8.9 131.825 9.23 133.299 9.89C134.795 10.55 135.939 11.496 136.731 12.728C137.523 13.96 137.919 15.423 137.919 17.117C137.919 18.855 137.49 20.351 136.632 21.605C135.796 22.859 134.586 23.794 133.002 24.41L138.315 32H133.695ZM133.596 17.117C133.596 15.643 133.112 14.51 132.144 13.718C131.176 12.926 129.757 12.53 127.887 12.53H122.871V21.737H127.887C129.757 21.737 131.176 21.341 132.144 20.549C133.112 19.735 133.596 18.591 133.596 17.117ZM158.888 23.288C158.888 23.574 158.866 23.981 158.822 24.509H144.995C145.237 25.807 145.864 26.841 146.876 27.611C147.91 28.359 149.186 28.733 150.704 28.733C152.64 28.733 154.235 28.095 155.489 26.819L157.7 29.36C156.908 30.306 155.907 31.021 154.697 31.505C153.487 31.989 152.123 32.231 150.605 32.231C148.669 32.231 146.964 31.846 145.49 31.076C144.016 30.306 142.872 29.239 142.058 27.875C141.266 26.489 140.87 24.927 140.87 23.189C140.87 21.473 141.255 19.933 142.025 18.569C142.817 17.183 143.906 16.105 145.292 15.335C146.678 14.565 148.24 14.18 149.978 14.18C151.694 14.18 153.223 14.565 154.565 15.335C155.929 16.083 156.985 17.15 157.733 18.536C158.503 19.9 158.888 21.484 158.888 23.288ZM149.978 17.48C148.658 17.48 147.536 17.876 146.612 18.668C145.71 19.438 145.16 20.472 144.962 21.77H154.961C154.785 20.494 154.246 19.46 153.344 18.668C152.442 17.876 151.32 17.48 149.978 17.48ZM170.936 32.231C169.11 32.231 167.471 31.846 166.019 31.076C164.567 30.306 163.434 29.239 162.62 27.875C161.806 26.489 161.399 24.927 161.399 23.189C161.399 21.451 161.806 19.9 162.62 18.536C163.434 17.172 164.556 16.105 165.986 15.335C167.438 14.565 169.088 14.18 170.936 14.18C172.674 14.18 174.192 14.532 175.49 15.236C176.81 15.94 177.8 16.952 178.46 18.272L175.292 20.12C174.786 19.306 174.148 18.701 173.378 18.305C172.63 17.887 171.805 17.678 170.903 17.678C169.363 17.678 168.087 18.184 167.075 19.196C166.063 20.186 165.557 21.517 165.557 23.189C165.557 24.861 166.052 26.203 167.042 27.215C168.054 28.205 169.341 28.7 170.903 28.7C171.805 28.7 172.63 28.502 173.378 28.106C174.148 27.688 174.786 27.072 175.292 26.258L178.46 28.106C177.778 29.426 176.777 30.449 175.457 31.175C174.159 31.879 172.652 32.231 170.936 32.231ZM182.025 14.378H186.15V32H182.025V14.378ZM184.104 11.474C183.356 11.474 182.729 11.243 182.223 10.781C181.717 10.297 181.464 9.703 181.464 8.999C181.464 8.295 181.717 7.712 182.223 7.25C182.729 6.766 183.356 6.524 184.104 6.524C184.852 6.524 185.479 6.755 185.985 7.217C186.491 7.657 186.744 8.218 186.744 8.9C186.744 9.626 186.491 10.242 185.985 10.748C185.501 11.232 184.874 11.474 184.104 11.474ZM201.332 14.18C203.048 14.18 204.577 14.554 205.919 15.302C207.283 16.05 208.35 17.106 209.12 18.47C209.89 19.834 210.275 21.407 210.275 23.189C210.275 24.971 209.89 26.555 209.12 27.941C208.35 29.305 207.283 30.361 205.919 31.109C204.577 31.857 203.048 32.231 201.332 32.231C198.956 32.231 197.075 31.439 195.689 29.855V38.402H191.564V14.378H195.491V16.688C196.173 15.852 197.009 15.225 197.999 14.807C199.011 14.389 200.122 14.18 201.332 14.18ZM200.87 28.7C202.388 28.7 203.631 28.194 204.599 27.182C205.589 26.17 206.084 24.839 206.084 23.189C206.084 21.539 205.589 20.208 204.599 19.196C203.631 18.184 202.388 17.678 200.87 17.678C199.88 17.678 198.989 17.909 198.197 18.371C197.405 18.811 196.778 19.449 196.316 20.285C195.854 21.121 195.623 22.089 195.623 23.189C195.623 24.289 195.854 25.257 196.316 26.093C196.778 26.929 197.405 27.578 198.197 28.04C198.989 28.48 199.88 28.7 200.87 28.7ZM230.753 23.288C230.753 23.574 230.731 23.981 230.687 24.509H216.86C217.102 25.807 217.729 26.841 218.741 27.611C219.775 28.359 221.051 28.733 222.569 28.733C224.505 28.733 226.1 28.095 227.354 26.819L229.565 29.36C228.773 30.306 227.772 31.021 226.562 31.505C225.352 31.989 223.988 32.231 222.47 32.231C220.534 32.231 218.829 31.846 217.355 31.076C215.881 30.306 214.737 29.239 213.923 27.875C213.131 26.489 212.735 24.927 212.735 23.189C212.735 21.473 213.12 19.933 213.89 18.569C214.682 17.183 215.771 16.105 217.157 15.335C218.543 14.565 220.105 14.18 221.843 14.18C223.559 14.18 225.088 14.565 226.43 15.335C227.794 16.083 228.85 17.15 229.598 18.536C230.368 19.9 230.753 21.484 230.753 23.288ZM221.843 17.48C220.523 17.48 219.401 17.876 218.477 18.668C217.575 19.438 217.025 20.472 216.827 21.77H226.826C226.65 20.494 226.111 19.46 225.209 18.668C224.307 17.876 223.185 17.48 221.843 17.48Z" fill="white"/>
<path d="M27.1428 12.3509C27.0334 12.3509 26.9283 12.3667 26.8216 12.3766C26.7323 11.647 26.4606 10.9504 26.0305 10.3492L22.8745 15.7194H30.5714C30.5714 14.826 30.2101 13.9692 29.5672 13.3375C28.9242 12.7058 28.0521 12.3509 27.1428 12.3509Z" fill="white"/>
<path d="M21.8711 8.44351C21.356 8.48933 20.8525 8.62085 20.3822 8.83245C20.1031 7.90316 19.5255 7.08751 18.7357 6.50738C17.9458 5.92724 16.9861 5.61375 15.9999 5.61375C15.0137 5.61375 14.0539 5.92724 13.2641 6.50738C12.4742 7.08751 11.8966 7.90316 11.6175 8.83245C10.9638 8.53634 10.2479 8.39648 9.52861 8.42428C8.80927 8.45209 8.10685 8.64678 7.47879 8.99243C6.85072 9.33808 6.31485 9.82489 5.915 10.413C5.51515 11.0012 5.26268 11.6739 5.17823 12.3763C5.07155 12.3666 4.96646 12.3509 4.85703 12.3509C3.94772 12.3509 3.07565 12.7058 2.43267 13.3375C1.78969 13.9692 1.42847 14.8259 1.42847 15.7193H17.5958L21.8711 8.44351Z" fill="white"/>
<path d="M21.5547 15.7193L30.1324 1.12281L28.153 0L18.9153 15.7193H21.5547Z" fill="white"/>
<path d="M20.7195 6.96578L24.1531 1.12281L22.1736 0L19.0247 5.35854C19.6962 5.77398 20.2731 6.32114 20.7195 6.96578Z" fill="white"/>
<path d="M10.2856 30.3158H21.7142V32H10.2856V30.3158Z" fill="white"/>
<path d="M0 16.8421V19.0877C0 21.7678 1.08367 24.3381 3.01261 26.2332C4.94155 28.1283 7.55776 29.1929 10.2857 29.1929H21.7142C24.4422 29.1929 27.0584 28.1283 28.9873 26.2332C30.9163 24.3381 31.9999 21.7678 31.9999 19.0877V16.8421H0Z" fill="white"/>
</svg>
