<svg width="80" height="80" viewBox="0 0 80 80" fill="none" xmlns="http://www.w3.org/2000/svg">
<rect width="80" height="80" rx="10" fill="#979797"/>
<path d="M52.6255 33.9767C52.4992 33.9767 52.3778 33.993 52.2546 34.0034C52.1516 33.2434 51.8377 32.5178 51.3412 31.8915L47.697 37.4854H56.5845C56.5845 36.5549 56.1674 35.6624 55.4249 35.0044C54.6825 34.3463 53.6755 33.9767 52.6255 33.9767V33.9767Z" fill="white"/>
<path d="M46.5384 29.9064C45.9435 29.9542 45.3622 30.0912 44.8191 30.3116C44.4969 29.3436 43.83 28.4939 42.9179 27.8896C42.0058 27.2853 40.8976 26.9588 39.7589 26.9588C38.6201 26.9588 37.512 27.2853 36.5999 27.8896C35.6878 28.4939 35.0209 29.3436 34.6986 30.3116C33.9437 30.0031 33.1172 29.8574 32.2866 29.8864C31.456 29.9154 30.6449 30.1182 29.9196 30.4782C29.1944 30.8383 28.5757 31.3454 28.114 31.958C27.6523 32.5707 27.3607 33.2715 27.2632 34.0031C27.14 33.993 27.0187 33.9766 26.8923 33.9766C25.8423 33.9766 24.8354 34.3463 24.0929 35.0043C23.3505 35.6623 22.9334 36.5548 22.9334 37.4854H41.6016L46.5384 29.9064Z" fill="white"/>
<path d="M46.1731 37.4854L56.0777 22.2807L53.7921 21.1111L43.1254 37.4854H46.1731Z" fill="white"/>
<path d="M45.2085 28.3671L49.1733 22.2807L46.8876 21.1111L43.2515 26.6929C44.0269 27.1257 44.6931 27.6957 45.2085 28.3671V28.3671Z" fill="white"/>
<path d="M33.1606 52.6901H46.3571V54.4445H33.1606V52.6901Z" fill="white"/>
<path d="M21.2838 38.655V40.9942C21.2838 43.7859 22.5351 46.4633 24.7624 48.4374C26.9898 50.4115 30.0107 51.5205 33.1606 51.5205H46.3571C49.507 51.5205 52.528 50.4115 54.7553 48.4374C56.9826 46.4633 58.2339 43.7859 58.2339 40.9942V38.655H21.2838Z" fill="white"/>
</svg>
