<svg width="55" height="50" viewBox="0 0 55 50" fill="none" xmlns="http://www.w3.org/2000/svg">
<rect width="54.5322" height="50" rx="10" fill="#DD2C00"/>
<path d="M29.9616 19.1765C26.5934 17.6705 22.6437 18.5612 20.3621 21.0985L23.89 24.3331C24.2926 24.7023 24.2926 25.2941 23.89 25.6574C23.6919 25.8391 23.4298 25.9328 23.1678 25.9328C22.9058 25.9328 22.6437 25.8391 22.4456 25.6574L19.2373 22.7158L11.0503 38.1095C10.8649 38.4611 10.8521 38.8889 11.0503 39.2639C11.3954 39.9144 12.2582 40.1839 12.9676 39.8675L21.5061 36.0469L18.3617 33.1639C17.9591 32.8006 17.9591 32.2029 18.3617 31.8395C18.7643 31.4762 19.4098 31.4762 19.8061 31.8395L23.449 35.1796L29.9679 32.2614C31.5018 31.5758 32.812 30.4273 33.6173 28.9155C35.541 25.3 33.9049 20.9403 29.9616 19.1765ZM35.8478 17.1314C37.094 14.7465 36.4485 11.9279 33.9113 10C30.6965 12.4435 30.5559 16.2993 33.4064 18.9011L33.9176 19.3698C36.7553 21.9833 40.967 21.8544 43.6257 18.9069C41.5231 16.5806 38.4489 15.9887 35.8478 17.1314Z" fill="white"/>
</svg>
