<svg width="20" height="6" viewBox="0 0 20 6" fill="none" xmlns="http://www.w3.org/2000/svg">
<path fill-rule="evenodd" clip-rule="evenodd" d="M2.75 5.5C4.26878 5.5 5.5 4.26878 5.5 2.75C5.5 1.23122 4.26878 0 2.75 0C1.23122 0 0 1.23122 0 2.75C0 4.26878 1.23122 5.5 2.75 5.5Z" fill="#333333"/>
<path fill-rule="evenodd" clip-rule="evenodd" d="M9.75 5.5C11.2688 5.5 12.5 4.26878 12.5 2.75C12.5 1.23122 11.2688 0 9.75 0C8.23122 0 7 1.23122 7 2.75C7 4.26878 8.23122 5.5 9.75 5.5Z" fill="#333333"/>
<path fill-rule="evenodd" clip-rule="evenodd" d="M16.75 5V5C17.9926 5 19 3.99264 19 2.75C19 1.50736 17.9926 0.5 16.75 0.5C15.5074 0.5 14.5 1.50736 14.5 2.75C14.5 3.99264 15.5074 5 16.75 5V5ZM16.75 5.5V5.5C15.2312 5.5 14 4.26878 14 2.75C14 1.23122 15.2312 0 16.75 0C18.2688 0 19.5 1.23122 19.5 2.75C19.5 4.26878 18.2688 5.5 16.75 5.5V5.5Z" fill="#333333"/>
</svg>
