<svg width="296" height="185" viewBox="0 0 296 185" fill="none" xmlns="http://www.w3.org/2000/svg">
<path opacity="0.1" d="M293.152 127.438C290.192 134.546 283.999 140.966 277.352 147.047C271.508 152.392 265.257 157.558 258.599 162.545C256.754 163.929 254.879 165.295 252.975 166.645L251.652 167.576C250.48 168.405 249.287 169.226 248.074 170.039L247.928 170.138C246.752 170.937 245.565 171.729 244.368 172.512C240.452 175.081 236.312 177.632 231.735 179.745C230.176 180.466 228.568 181.138 226.902 181.741C226.001 182.068 225.081 182.374 224.142 182.659C222.603 183.126 221.023 183.534 219.373 183.868C219.098 183.926 218.82 183.98 218.541 184.032C216.852 184.349 215.142 184.58 213.414 184.738C207.081 185.317 200.54 184.894 194.196 183.902C191.026 183.407 187.904 182.768 184.885 182.042C184.513 181.953 184.144 181.862 183.772 181.782C173.489 179.213 163.835 175.725 153.479 173.273C149.91 172.427 146.271 171.709 142.564 171.119C140.755 170.832 138.936 170.572 137.106 170.34C132.8 169.806 128.439 169.447 124.06 169.266C118.156 169.006 112.059 169.118 106.441 170.148C105.692 170.285 104.953 170.439 104.224 170.61C103.299 170.826 102.391 171.073 101.5 171.35C99.0997 172.124 96.7633 173.085 94.5123 174.222C94.0679 174.44 93.6287 174.661 93.1895 174.884C91.8122 175.585 90.453 176.301 89.0731 176.997C86.5895 178.295 84.0048 179.39 81.3443 180.272C79.887 180.731 78.4052 181.109 76.9056 181.403C72.9373 182.197 68.7143 182.511 64.4731 182.532C62.4278 182.532 60.38 182.488 58.3555 182.382H58.2932C57.6019 182.345 56.908 182.304 56.2141 182.252C53.054 182.036 49.9043 181.704 46.8014 181.25C36.1698 179.693 26.0865 176.75 17.9758 172.261C6.95956 166.167 -0.0363383 157.082 1.01357 148.004C1.76721 141.464 6.44761 135.392 10.8889 129.447C19.1504 118.376 26.8896 107.053 30.9618 95.1184C34.2649 85.4309 35.2498 75.188 42.8512 66.4814C45.2863 63.6943 48.3996 61.1511 52.0249 58.9219C54.7347 57.2652 57.575 55.8314 60.5177 54.6348C63.8436 53.2745 67.265 52.1599 70.7543 51.3001C73.7784 50.5509 76.8431 49.9756 79.9332 49.5769C81.612 49.3589 83.3116 49.1902 85.0216 49.0761C86.3383 48.9844 87.6611 48.9264 88.9899 48.9022H89.1952C90.0078 48.8866 90.8203 48.8866 91.6329 48.9022C97.5577 48.9938 103.466 49.5482 109.305 50.5605C112.958 51.1703 116.581 51.9177 120.128 52.7403C122.246 53.23 124.344 53.7429 126.423 54.2792C127.057 54.4427 127.691 54.6088 128.317 54.7775C143.109 58.735 156.124 64.2003 170.376 68.6847C170.449 68.708 170.519 68.7314 170.591 68.7496C173.517 69.6478 176.487 70.3928 179.49 70.9813C181.696 71.4225 183.952 71.804 186.246 72.1388C189.76 72.6578 193.349 73.0678 196.964 73.4208L197.762 73.4986C203.066 74.0176 208.417 74.4043 213.614 74.8558C215.459 75.0167 217.289 75.1828 219.092 75.3749C220.236 75.4891 221.369 75.6102 222.492 75.7382C223.297 75.8316 224.105 75.925 224.914 76.0236C225.722 76.1223 226.577 76.2261 227.408 76.3325C227.949 76.3999 228.487 76.47 229.027 76.5453C232.302 76.9786 235.569 77.4639 238.799 78.0193C240.764 78.3566 242.718 78.72 244.649 79.1118C246.047 79.3956 247.433 79.6949 248.807 80.0097C249.825 80.2398 250.836 80.482 251.837 80.7364C259.974 82.7787 267.588 85.4569 274.15 89.0718C291.19 98.4376 298.815 113.845 293.152 127.438Z" fill="#CCC0AE"/>
<path opacity="0.1" d="M64.707 23.4598C67.8114 23.4598 70.3281 20.9466 70.3281 17.8465C70.3281 14.7464 67.8114 12.2333 64.707 12.2333C61.6025 12.2333 59.0858 14.7464 59.0858 17.8465C59.0858 20.9466 61.6025 23.4598 64.707 23.4598Z" fill="#DD2C00"/>
<path opacity="0.1" d="M179.601 11.2264C182.706 11.2264 185.223 8.71331 185.223 5.61322C185.223 2.51312 182.706 0 179.601 0C176.497 0 173.98 2.51312 173.98 5.61322C173.98 8.71331 176.497 11.2264 179.601 11.2264Z" fill="#DD2C00"/>
<path opacity="0.1" d="M247.728 23.7971C250.833 23.7971 253.349 21.284 253.349 18.1839C253.349 15.0838 250.833 12.5707 247.728 12.5707C244.624 12.5707 242.107 15.0838 242.107 18.1839C242.107 21.284 244.624 23.7971 247.728 23.7971Z" fill="#DD2C00"/>
<path opacity="0.1" d="M9.42056 40.834C14.6234 40.834 18.8411 36.6223 18.8411 31.4268C18.8411 26.2313 14.6234 22.0195 9.42056 22.0195C4.21773 22.0195 0 26.2313 0 31.4268C0 36.6223 4.21773 40.834 9.42056 40.834Z" fill="#DD2C00"/>
<path opacity="0.1" d="M18.4513 87.2865C23.6542 87.2865 27.8719 83.0747 27.8719 77.8792C27.8719 72.6837 23.6542 68.4719 18.4513 68.4719C13.2485 68.4719 9.03076 72.6837 9.03076 77.8792C9.03076 83.0747 13.2485 87.2865 18.4513 87.2865Z" fill="#DD2C00"/>
<path opacity="0.1" d="M271.291 70.1872C276.494 70.1872 280.712 65.9755 280.712 60.78C280.712 55.5845 276.494 51.3727 271.291 51.3727C266.089 51.3727 261.871 55.5845 261.871 60.78C261.871 65.9755 266.089 70.1872 271.291 70.1872Z" fill="#DD2C00"/>
<path d="M92.0875 62.1139C92.1342 62.9037 92.088 63.6963 91.9498 64.4754C91.43 66.8863 89.2315 68.5419 87.1031 69.798C84.9747 71.054 82.6358 72.2426 81.3702 74.3628C79.8447 76.9241 80.3307 80.3678 82.1212 82.7605C83.9118 85.1532 86.7496 86.5779 89.6707 87.1722C94.9981 88.27 100.832 86.7285 104.827 83.0434C108.821 79.3584 110.825 73.5998 109.845 68.2513C107.678 68.5549 105.747 66.6449 105.045 64.574C104.343 62.5031 104.489 60.2584 104.216 58.0863C104.196 57.719 104.085 57.3623 103.894 57.0482C103.59 56.6278 103.052 56.4565 102.55 56.319C100.045 55.6313 95.8297 54.1261 93.2336 54.7022C90.8947 55.2368 92.0485 60.152 92.0875 62.1139Z" fill="#BE6F72"/>
<path opacity="0.1" d="M92.0875 62.1139C92.1342 62.9037 92.088 63.6963 91.9498 64.4754C91.43 66.8863 89.2315 68.5419 87.1031 69.798C84.9747 71.054 82.6358 72.2426 81.3702 74.3628C79.8447 76.9241 80.3307 80.3678 82.1212 82.7605C83.9118 85.1532 86.7496 86.5779 89.6707 87.1722C94.9981 88.27 100.832 86.7285 104.827 83.0434C108.821 79.3584 110.825 73.5998 109.845 68.2513C107.678 68.5549 105.747 66.6449 105.045 64.574C104.343 62.5031 104.489 60.2584 104.216 58.0863C104.196 57.719 104.085 57.3623 103.894 57.0482C103.59 56.6278 103.052 56.4565 102.55 56.319C100.045 55.6313 95.8297 54.1261 93.2336 54.7022C90.8947 55.2368 92.0485 60.152 92.0875 62.1139Z" fill="black"/>
<path d="M89.0601 177.002C86.5766 178.3 83.9919 179.395 81.3314 180.277C79.8741 180.736 78.3922 181.114 76.8927 181.408C76.7865 179.413 76.8955 177.412 77.2175 175.44C77.4202 174.305 77.7191 173.182 77.797 172.032C77.9074 170.373 77.5519 168.716 76.7705 167.247C79.6655 166.852 82.4151 166.209 85.3231 166.398L85.5076 166.411C85.8534 166.42 86.1956 166.484 86.5211 166.601C86.9686 166.817 87.3486 167.151 87.6204 167.566C87.7702 167.77 87.9081 167.982 88.0336 168.202C88.8548 169.619 89.1667 171.254 89.2317 172.938C89.2622 174.295 89.2049 175.652 89.0601 177.002Z" fill="#BE6F72"/>
<path d="M104.213 170.613C103.288 170.829 102.38 171.075 101.49 171.352C99.0893 172.127 96.7529 173.087 94.5019 174.225C94.3557 173.518 94.2842 172.798 94.2888 172.076C95.6152 171.163 97.112 170.525 98.6902 170.201C100.268 169.877 101.896 169.873 103.475 170.19C103.687 170.215 103.887 170.296 104.058 170.423C104.119 170.478 104.172 170.542 104.213 170.613Z" fill="#BE6F72"/>
<path d="M108.681 157.513C108.504 159.21 108.244 160.912 107.641 162.508C106.989 164.221 105.929 165.882 106.064 167.711C106.124 168.505 106.394 169.367 106.433 170.153C105.684 170.29 104.945 170.444 104.216 170.615C103.291 170.832 102.383 171.078 101.493 171.355C99.0919 172.129 96.7554 173.09 94.5045 174.228C94.0601 174.446 93.6209 174.666 93.1817 174.889C92.9998 174.866 92.8205 174.838 92.6386 174.804C91.3392 174.568 89.9722 173.986 89.2367 172.948C89.0684 172.709 88.9362 172.447 88.8443 172.17C88.4207 170.906 88.8625 169.331 87.9815 168.329L87.94 168.365L87.9088 168.386C87.4262 168.823 86.8962 169.204 86.3287 169.523C85.037 170.253 83.606 170.703 82.1286 170.846C80.6512 170.988 79.1603 170.818 77.7528 170.348C77.1951 170.158 76.6565 169.917 76.1441 169.627C74.9539 168.949 73.8052 167.81 73.8988 166.45C73.9508 165.692 74.3848 164.966 74.2678 164.216C74.182 163.679 73.8286 163.232 73.5635 162.757C71.825 159.643 73.8988 155.639 72.8073 152.255C72.7813 152.174 72.7527 152.094 72.7241 152.016C72.6436 151.796 72.5526 151.583 72.4643 151.37C72.2408 150.874 71.9913 150.386 71.7938 149.878C71.6293 149.45 71.499 149.01 71.404 148.562C71.1586 147.261 71.0714 145.935 71.1441 144.612C71.1441 141.127 71.7678 137.559 72.6566 134.201C72.8151 133.604 72.9918 132.76 73.2257 131.842C73.4537 130.873 73.7614 129.926 74.1457 129.008C74.6654 127.814 75.3723 126.862 76.339 126.636C77.7943 126.296 80.0189 127.015 81.495 127.191L87.3292 127.887L98.9952 129.28C101.009 129.522 103.125 129.799 104.785 130.931C104.894 131.006 105.001 131.084 105.107 131.167C105.546 131.512 105.939 131.912 106.277 132.356C106.396 132.509 106.511 132.67 106.62 132.833C106.998 133.412 107.32 134.025 107.582 134.665C109.029 138.138 109.063 142.012 109.073 145.772C109.073 149.696 109.086 153.617 108.681 157.513Z" fill="#3F3D56"/>
<path opacity="0.1" d="M86.3157 169.538C85.9649 168.189 85.2243 166.235 85.1151 165.703C84.749 163.918 84.4835 162.114 84.3199 160.3C84.0314 157.066 83.5117 152.514 84.6551 149.439C85.7284 150.01 86.6718 151.627 87.1681 152.73C88.9665 156.729 86.942 161.639 88.6312 165.685C88.7576 165.927 88.8361 166.191 88.8625 166.463C88.8332 166.808 88.7091 167.139 88.5039 167.418L87.9348 168.363L86.3157 169.538Z" fill="black"/>
<path d="M123.743 46.0787C125.656 42.9646 128.276 39.9024 128.112 36.2614C128.052 34.9639 127.626 33.6949 127.301 32.4233C126.37 28.743 126.309 24.8971 127.122 21.1891C130.335 20.6735 133.625 21.4092 136.311 23.2444C137.161 23.8309 137.966 24.5601 138.341 25.5229C138.686 26.4104 138.629 27.3992 138.567 28.349C138.424 30.5314 138.229 32.8593 136.883 34.5772C136.464 35.1144 135.95 35.5685 135.542 36.1109C134.947 36.8895 134.598 37.8393 134.258 38.7657L129.84 50.7681C127.61 56.8173 125.193 63.1442 120.282 67.3301C120.162 67.4313 116.643 62.4409 116.352 61.94C115.175 59.8873 115.69 59.0205 117.114 57.3026C119.923 53.9056 121.449 49.8079 123.743 46.0787Z" fill="#BE6F72"/>
<path d="M73.1139 148.38C73.0989 149.276 73.0233 150.17 72.8878 151.056C72.8411 151.383 72.7865 151.707 72.7215 152.032C71.8353 156.651 69.629 161.045 68.0853 165.544C66.0505 171.485 65.1565 176.639 64.447 182.537C62.4018 182.537 60.3539 182.493 58.3295 182.387H58.2671C57.5759 182.35 56.882 182.309 56.1881 182.257C56.8144 176.755 55.6684 170.984 56.7884 165.477C57.2406 163.261 58.0124 161.109 58.4776 158.904C58.621 158.254 58.7295 157.598 58.8025 156.936C58.8674 156.308 58.9012 155.657 59.1845 155.091C59.2104 155.037 59.2399 154.984 59.2729 154.933C59.5217 154.542 59.8303 154.191 60.1876 153.895C63.3541 151.122 67.2271 149.278 71.3779 148.567C71.9679 148.487 72.5422 148.419 73.1139 148.38Z" fill="#FBBEBE"/>
<path opacity="0.1" d="M73.1139 148.38C73.0989 149.276 73.0233 150.17 72.8878 151.056C72.8411 151.383 72.7865 151.707 72.7215 152.032C71.8353 156.651 69.629 161.045 68.0853 165.544C66.0505 171.485 65.1565 176.639 64.447 182.537C62.4018 182.537 60.3539 182.493 58.3295 182.387H58.2671C57.5759 182.35 56.882 182.309 56.1881 182.257C56.8144 176.755 55.6684 170.984 56.7884 165.477C57.2406 163.261 58.0124 161.109 58.4776 158.904C58.621 158.254 58.7295 157.598 58.8025 156.936C58.8674 156.308 58.9012 155.657 59.1845 155.091C59.2104 155.037 59.2399 154.984 59.2729 154.933C59.5217 154.542 59.8303 154.191 60.1876 153.895C63.3541 151.122 67.2271 149.278 71.3779 148.567C71.9679 148.487 72.5422 148.419 73.1139 148.38Z" fill="black"/>
<path d="M59.9382 160.206C59.8962 161.648 59.7774 163.087 59.5822 164.517C58.8883 170.358 58.7584 176.454 58.2828 182.384C57.5915 182.348 56.8977 182.306 56.2038 182.254C53.0437 182.039 49.894 181.707 46.791 181.253C47.0301 179.917 47.2709 178.581 47.5135 177.246C47.8098 175.608 48.106 173.955 48.0203 172.294C47.9397 170.724 47.5187 169.196 47.1834 167.657C46.4688 164.361 46.0686 160.806 44.8913 157.697C44.2774 155.953 43.2974 154.36 42.0171 153.026C46.8872 151.116 51.5676 151.007 56.7989 151.209C57.1703 151.189 57.5394 151.279 57.8592 151.469C58.1071 151.683 58.2914 151.961 58.392 152.273C59.1781 154.161 59.6714 156.158 59.8551 158.195C59.9176 158.864 59.9453 159.535 59.9382 160.206Z" fill="#FBBEBE"/>
<path d="M99.1667 60.7748C104.764 60.7748 109.302 56.2435 109.302 50.6539C109.302 45.0643 104.764 40.533 99.1667 40.533C93.5692 40.533 89.0315 45.0643 89.0315 50.6539C89.0315 56.2435 93.5692 60.7748 99.1667 60.7748Z" fill="#BE6F72"/>
<path d="M101.274 74.3083C102.574 72.0947 103.712 69.3309 106.212 68.7158C107.623 68.3655 109.091 68.843 110.466 69.3127C110.864 69.4068 111.226 69.6163 111.506 69.9148C111.709 70.2366 111.818 70.6087 111.82 70.9891C112.255 75.5643 112.241 80.171 111.776 84.7432C111.446 87.9793 110.89 91.1998 110.791 94.4515C110.653 98.9592 111.397 103.467 111.152 107.969C110.968 111.382 110.219 114.735 109.476 118.07L106.357 132.031C106.302 132.463 106.128 132.872 105.856 133.212C105.593 133.453 105.278 133.63 104.936 133.731C100.422 135.324 95.6236 135.955 90.8505 135.582C86.0774 135.208 81.4358 133.84 77.2252 131.564C76.1 130.946 74.9773 130.233 74.2444 129.179C73.2049 127.684 73.1088 125.707 73.4466 123.916C73.7845 122.126 74.5147 120.436 75.0059 118.679C75.7647 115.955 75.944 113.11 76.1155 110.287C76.3442 106.571 76.5729 102.831 76.1753 99.1279C75.9025 96.5769 75.3333 94.0648 74.9045 91.5346C74.273 87.7211 73.9065 83.8686 73.8078 80.0046C73.7429 77.6975 73.8494 75.1361 75.4477 73.4727C76.2273 72.663 77.2668 72.1751 78.3245 71.7807C80.0995 71.1267 82.0823 70.7426 83.8755 71.3395C85.6686 71.9364 87.1136 73.8152 86.69 75.6552C86.4951 76.5089 85.9415 77.2563 85.8064 78.1231C85.6271 79.2701 86.2352 80.425 87.1058 81.2009C91.7888 85.4257 98.938 78.3151 101.274 74.3083Z" fill="#E3E8F4"/>
<path d="M101.646 63.9668C103.068 63.4437 104.614 63.3534 106.087 63.7073C107.025 63.9305 108.039 64.3249 108.904 63.9071C109.219 63.7566 109.479 63.5101 109.796 63.3699C110.653 62.9936 111.766 63.4556 112.524 62.908C113.003 62.5628 113.159 61.9348 113.32 61.3639C114.1 58.6387 115.699 56.2183 117.901 54.4298C117.628 56.4202 117.431 58.6858 118.748 60.2065C119.349 60.8968 120.191 61.3302 121.043 61.6675C122.267 62.1528 123.611 62.4746 124.902 62.2099C126.194 61.9452 127.402 60.9694 127.608 59.6693C127.564 61.6234 125.7 62.9884 125.178 64.8751C124.98 65.581 124.999 66.3309 124.861 67.0524C124.51 68.8949 123.192 70.3741 122.041 71.8585C118.364 76.633 116.015 82.2926 115.232 88.2648C115.179 88.9735 115.031 89.6718 114.791 90.3409C114.536 90.854 114.248 91.3499 113.928 91.8253C112.023 95.038 112.61 99.0916 113.257 102.761C114.268 108.509 115.277 114.141 116.914 119.743C117.194 120.701 117.511 121.7 118.226 122.398C118 124.664 115.711 125.697 113.652 126.675C111.62 127.643 109.745 128.91 108.091 130.435C107.498 130.98 106.914 131.593 106.698 132.369C106.495 133.098 106.641 133.9 106.381 134.608C106.121 135.317 105.082 135.825 104.624 135.228C104.052 133.093 105.03 130.858 104.985 128.647C104.954 127.155 104.466 125.704 104.395 124.212C104.328 122.523 104.827 120.865 105.357 119.261C106.833 114.795 108.616 110.37 109.128 105.696C109.64 101.022 108.683 95.9178 105.362 92.583C101.42 88.6073 99.2317 83.2173 95.0061 79.566C94.3356 78.9873 93.5768 78.2684 93.6885 77.3913C93.7657 77.005 93.9361 76.6433 94.1849 76.3377C95.635 74.2927 97.5633 72.6241 99.1226 70.6674C100.682 68.7107 101.929 66.4581 101.646 63.9668Z" fill="#3F3D56"/>
<path d="M87.7711 68.1527C87.5112 68.4122 87.3319 68.7703 87.0305 68.9935C86.6784 69.2105 86.2769 69.3346 85.8636 69.3542C84.3342 69.5862 82.792 69.724 81.2456 69.7669C79.9462 69.7669 78.5974 69.6527 77.3474 70.0082C75.6037 70.5013 74.2107 71.8767 73.3375 73.4597C72.4643 75.0427 72.0511 76.8333 71.7159 78.6162C70.9769 82.5441 70.5813 86.5288 70.5334 90.5251C72.6755 88.8193 74.5846 86.8406 76.2118 84.6394C77.4592 82.95 78.5897 81.0815 80.3698 79.9527C81.1884 79.4336 82.1084 79.0911 82.9322 78.585C84.65 77.5288 85.8402 75.8212 86.9837 74.1733C87.8257 72.9511 90.2608 70.5635 90.4531 69.0999C90.6168 67.7011 88.6807 67.0186 87.7711 68.1527Z" fill="#3F3D56"/>
<path d="M96.8252 43.7249C97.1461 43.9174 97.4535 44.1316 97.7451 44.3659C99.5097 45.596 101.872 45.3677 104.006 45.0874C104.66 45.0043 105.334 44.9109 105.895 44.5684C106.797 44.013 107.22 42.8712 107.132 41.815C107.044 40.7587 106.511 39.7856 105.861 38.9603C105 37.8683 103.927 36.962 102.705 36.2965C101.483 35.6309 100.139 35.22 98.7535 35.0884C98.0361 34.9945 97.3067 35.0719 96.6251 35.3142C95.7857 35.6594 95.1542 36.3704 94.3797 36.8453C92.0954 38.2467 88.5766 37.6239 87.1031 39.8608C86.0247 41.5113 86.7939 43.7535 86.2845 45.6505C85.9051 47.0674 84.811 48.3572 85.0215 49.8027C85.1385 50.5812 85.627 51.2611 86.0169 51.9566C86.9121 53.5555 87.3262 55.3784 87.2097 57.2065C88.2102 57.9124 89.6058 56.8147 89.8838 55.6261C90.1619 54.4375 89.8423 53.1711 90.0787 51.9722C90.4971 49.8676 92.3579 48.3235 93.1973 46.3927C93.8002 45.0095 94.7825 42.6739 96.8252 43.7249Z" fill="#3F3D56"/>
<path d="M72.2511 66.7618C72.1732 67.2341 72.1238 67.7557 72.3862 68.1553C72.906 68.9339 74.0962 68.6536 75.0318 68.7704C76.4897 68.9494 77.5656 70.3274 77.8489 71.7755C78.1321 73.2236 77.7943 74.6976 77.4253 76.1197C76.5902 79.3428 75.5957 82.5201 74.4419 85.6515C71.3389 85.2856 68.0723 84.0945 66.4247 81.4501C64.9278 79.0444 65.0811 75.9796 64.1299 73.3118C63.4621 71.433 62.264 69.798 61.079 68.1943C62.9839 68.433 64.3456 66.2583 64.4574 64.3431C64.5691 62.4279 63.9662 60.4842 64.3768 58.6131C64.473 58.1694 71.9808 59.5681 72.7111 60.0742C74.8213 61.5352 72.5838 64.7324 72.2511 66.7618Z" fill="#FBBEBE"/>
<path opacity="0.1" d="M72.2511 66.7618C72.1732 67.2341 72.1238 67.7557 72.3862 68.1553C72.906 68.9339 74.0962 68.6536 75.0318 68.7704C76.4897 68.9494 77.5656 70.3274 77.8489 71.7755C78.1321 73.2236 77.7943 74.6976 77.4253 76.1197C76.5902 79.3428 75.5957 82.5201 74.4419 85.6515C71.3389 85.2856 68.0723 84.0945 66.4247 81.4501C64.9278 79.0444 65.0811 75.9796 64.1299 73.3118C63.4621 71.433 62.264 69.798 61.079 68.1943C62.9839 68.433 64.3456 66.2583 64.4574 64.3431C64.5691 62.4279 63.9662 60.4842 64.3768 58.6131C64.473 58.1694 71.9808 59.5681 72.7111 60.0742C74.8213 61.5352 72.5838 64.7324 72.2511 66.7618Z" fill="black"/>
<path d="M70.5802 63.6294C76.1777 63.6294 80.7154 59.0981 80.7154 53.5085C80.7154 47.9189 76.1777 43.3876 70.5802 43.3876C64.9826 43.3876 60.4449 47.9189 60.4449 53.5085C60.4449 59.0981 64.9826 63.6294 70.5802 63.6294Z" fill="#FBBEBE"/>
<path d="M67.4591 65.3084C67.8281 64.7323 67.1992 63.9278 67.4876 63.3076C67.6592 62.9339 68.0932 62.773 68.4284 62.5291C68.8488 62.1874 69.1842 61.753 69.4081 61.2601C70.9861 58.2323 71.4637 54.7517 70.7595 51.4116C70.5204 50.2906 70.3073 48.801 71.3338 48.2975C71.6184 48.1707 71.9302 48.1172 72.2408 48.1418C74.0911 48.2015 75.8791 49.4394 77.6748 49.0008C78.2878 48.8344 78.8352 48.485 79.2439 47.9994C79.6526 47.5139 79.903 46.9153 79.9618 46.2837C80.0787 44.6073 78.8209 43.1696 77.5839 42.0407C75.3567 39.9958 71.9627 39.5416 68.9378 39.4923L63.3114 39.3989C61.5105 39.3678 59.4912 39.4248 58.2386 40.7146C56.435 42.5701 57.342 45.6064 57.0821 48.1781C56.8612 50.2307 55.833 52.1116 54.2235 53.4073C53.0566 54.3363 51.4506 55.2238 51.4714 56.7082C51.4714 57.2273 51.6949 57.6996 51.8378 58.1901C52.4121 60.1312 51.8638 62.2773 50.7619 63.9771C49.66 65.6769 48.0488 66.9849 46.3778 68.1293C45.4838 68.7392 44.5586 69.3257 43.8518 70.1535C43.0768 71.1097 42.6166 72.2816 42.5342 73.509C42.423 74.4468 42.6161 75.3956 43.0851 76.2157C44.1844 77.97 46.8222 78.2269 48.6283 77.2096C50.4345 76.1923 51.5364 74.2667 52.2666 72.3308C52.7032 71.1812 53.1476 69.8654 54.2651 69.349C55.6788 68.6925 57.3316 69.7305 58.2516 70.9891C59.1716 72.2477 59.7381 73.7841 60.9153 74.8065C62.7605 76.4103 65.8998 76.1508 67.4591 74.2667C68.5739 72.9147 68.8208 71.0436 68.7584 69.2919C68.7274 67.8653 68.2754 66.4796 67.4591 65.3084Z" fill="#3F3D56"/>
<path d="M71.0974 78.4994C69.9409 78.7459 68.7325 78.2009 67.8723 77.3861C67.0121 76.5712 66.4326 75.5202 65.8296 74.5029C64.3011 71.9369 62.5488 69.5106 60.5931 67.2522C58.8883 65.2877 56.5156 63.2921 53.9844 63.8993C53.1369 64.1436 52.3506 64.5636 51.6767 65.132C49.4449 66.8966 47.698 69.1978 46.5994 71.8203C45.5009 74.4427 45.0866 77.3006 45.3955 80.1265C45.593 81.7796 46.0426 83.3964 46.2297 85.0572C46.3557 86.4262 46.3922 87.8019 46.3388 89.1757C46.2686 93.359 46.1257 97.7836 43.8674 101.308C40.3668 106.758 38.4931 113.266 35.9229 119.214C34.5352 122.429 33.7036 125.852 32.8875 129.257C32.4042 131.278 31.9217 133.298 31.44 135.317L28.2955 148.526C27.9707 149.888 27.6458 151.316 27.9889 152.678C28.5086 154.713 30.4239 156.135 32.4432 156.713C34.4624 157.292 36.6012 157.193 38.6984 157.212C42.7109 157.251 46.7546 157.749 50.5202 159.14C51.5961 159.537 52.6694 160.012 53.8155 160.105C54.9616 160.199 56.1024 159.9 57.1757 159.485C60.1045 158.353 62.6149 156.371 65.3125 154.77C66.9975 153.756 68.7721 152.898 70.614 152.208C71.5392 151.863 72.5319 151.536 73.1686 150.781C73.6494 150.213 73.8651 149.47 74.0236 148.744C74.902 144.654 74.312 140.416 74.0236 136.243C73.7351 132.07 71.2377 127.661 73.3037 124.023C73.7195 123.288 74.2159 122.582 74.429 121.768C74.7097 120.704 74.4732 119.559 74.7097 118.485C74.8838 117.691 75.3022 116.977 75.588 116.217C76.087 114.878 76.1546 113.419 76.1494 111.989C76.1376 108.85 75.8068 105.72 75.1618 102.647C74.3432 98.7542 77.0512 94.9057 78.6026 91.2284C79.1588 89.9127 79.9462 88.6696 80.1775 87.2605C80.3854 85.9889 80.1177 84.6939 79.9176 83.4197C79.619 81.4449 79.4972 79.4474 79.5538 77.451C79.6032 75.6603 79.7929 73.836 79.3641 72.0947C78.9353 70.3533 77.7112 68.6639 75.9519 68.3058C75.7546 68.248 75.547 68.2346 75.3439 68.2665C75.1408 68.2983 74.9473 68.3747 74.7772 68.4901C74.5741 68.6889 74.431 68.9406 74.364 69.2167C73.7923 70.9658 73.904 72.8498 73.5844 74.6664C73.2647 76.483 72.8905 78.1153 71.0974 78.4994Z" fill="#F86D70"/>
<path d="M46.5727 89.6454C46.6792 88.9265 46.344 87.9715 45.6163 87.9975C44.9459 88.0234 44.647 88.8617 44.6496 89.5338C44.6522 90.2059 44.7431 90.9767 44.2676 91.449C43.8466 91.8668 43.1501 91.8538 42.6615 92.1938C42.4891 92.3166 42.3488 92.479 42.2525 92.6674C42.1561 92.8557 42.1066 93.0645 42.108 93.2759C42.108 93.6367 42.2717 93.9818 42.2821 94.3425C42.2925 94.7033 42.0508 95.1211 41.6922 95.0977C41.508 95.4064 41.4313 95.7673 41.4741 96.1241C41.5169 96.4809 41.6767 96.8135 41.9287 97.07C42.1158 97.2517 42.3601 97.4074 42.4224 97.6617C42.4422 97.8401 42.4281 98.0205 42.3809 98.1937C42.2717 98.9073 42.7655 99.7066 43.4853 99.7845C43.0825 100.073 43.1631 100.747 43.5321 101.082C43.9011 101.417 44.4313 101.482 44.9277 101.482C46.0542 101.475 47.1682 101.245 48.2047 100.804C48.5596 100.687 48.8735 100.471 49.1091 100.182C49.2184 100.032 49.2708 99.8487 49.257 99.6642C49.2432 99.4797 49.1641 99.3061 49.0337 99.1746C49.5379 99.2577 50.1434 99.3044 50.4734 98.9151C50.9334 98.3702 50.4397 97.5631 49.9537 97.0363C50.1552 97.0064 50.3435 96.9179 50.4952 96.782C50.6468 96.6461 50.7551 96.4687 50.8066 96.2719C50.8581 96.075 50.8506 95.8674 50.7849 95.6748C50.7192 95.4821 50.5982 95.3131 50.4371 95.1885C50.2707 95.0666 50.0446 94.9602 50.0213 94.7552C49.9979 94.5501 50.172 94.4178 50.2448 94.2361C50.4111 93.8287 50.0317 93.4135 49.6652 93.167C48.7972 92.5908 47.5186 92.6012 46.7468 92.0199C45.975 91.4386 46.4609 90.4239 46.5727 89.6454Z" fill="#BE6F72"/>
<path d="M100.185 50.2672C99.5559 50.3305 98.9225 50.3453 98.2908 50.3113C98.1831 50.2996 98.0751 50.3305 97.9901 50.3975C97.905 50.4645 97.8497 50.5622 97.836 50.6695L96.6276 59.7212C96.5346 60.3783 96.2652 60.9979 95.848 61.5144C95.504 61.9254 95.2483 62.4027 95.0967 62.9165C94.9452 63.4303 94.901 63.9698 94.967 64.5014V79.8774C94.967 79.8774 94.889 81.9275 96.4665 81.9275C98.3544 82.1644 100.265 82.1644 102.153 81.9275C102.153 81.9275 103.416 81.6888 103.416 79.7969V64.6571C103.512 64.1289 103.492 63.5861 103.358 63.0663C103.223 62.5465 102.977 62.0621 102.636 61.6468C102.233 61.1284 101.972 60.5138 101.88 59.8639L100.625 50.6227C100.61 50.5189 100.557 50.4243 100.475 50.3582C100.394 50.2922 100.29 50.2597 100.185 50.2672Z" fill="#3F3D56"/>
<path opacity="0.1" d="M100.185 50.2672C99.5559 50.3305 98.9225 50.3453 98.2908 50.3113C98.1831 50.2996 98.0751 50.3305 97.9901 50.3975C97.905 50.4645 97.8497 50.5622 97.836 50.6695L96.6276 59.7212C96.5346 60.3783 96.2652 60.9979 95.848 61.5144C95.504 61.9254 95.2483 62.4027 95.0967 62.9165C94.9452 63.4303 94.901 63.9698 94.967 64.5014V79.8774C94.967 79.8774 94.889 81.9275 96.4665 81.9275C98.3544 82.1644 100.265 82.1644 102.153 81.9275C102.153 81.9275 103.416 81.6888 103.416 79.7969V64.6571C103.512 64.1289 103.492 63.5861 103.358 63.0663C103.223 62.5465 102.977 62.0621 102.636 61.6468C102.233 61.1284 101.972 60.5138 101.88 59.8639L100.625 50.6227C100.61 50.5189 100.557 50.4243 100.475 50.3582C100.394 50.2922 100.29 50.2597 100.185 50.2672Z" fill="black"/>
<path d="M100.193 64.7765H98.2779C96.6919 64.7765 95.4062 66.0604 95.4062 67.6441V74.8403C95.4062 76.424 96.6919 77.7079 98.2779 77.7079H100.193C101.779 77.7079 103.065 76.424 103.065 74.8403V67.6441C103.065 66.0604 101.779 64.7765 100.193 64.7765Z" fill="#DD2C00"/>
<path d="M125.932 11.1538C125.376 11.4586 124.797 11.7189 124.201 11.9323C124.097 11.9631 124.01 12.0328 123.957 12.1268C123.904 12.2207 123.89 12.3315 123.917 12.4357L126.293 21.2591C126.463 21.8995 126.455 22.574 126.272 23.2106C126.112 23.7221 126.059 24.2611 126.117 24.7938C126.175 25.3265 126.343 25.8416 126.61 26.3066L132.54 40.4966C132.54 40.4966 133.257 42.417 134.715 41.8098C136.551 41.3013 138.315 40.5637 139.965 39.6143C139.965 39.6143 141.038 38.9084 140.311 37.1645L134.471 23.1925C134.356 22.6679 134.129 22.1744 133.804 21.7461C133.48 21.3178 133.066 20.9648 132.592 20.7115C132.021 20.3886 131.543 19.9226 131.207 19.3595L126.485 11.3147C126.432 11.2216 126.344 11.1529 126.241 11.1229C126.138 11.0929 126.027 11.1039 125.932 11.1538Z" fill="#3F3D56"/>
<path d="M131.539 24.5436L129.771 25.2802C128.307 25.8901 127.616 27.5693 128.227 29.0309L131.002 35.6721C131.613 37.1337 133.294 37.8241 134.758 37.2142L136.526 36.4777C137.989 35.8678 138.681 34.1885 138.07 32.727L135.295 26.0857C134.684 24.6242 133.002 23.9337 131.539 24.5436Z" fill="#DD2C00"/>
<path d="M53.002 65.5758C50.2083 66.7254 49.1038 70.3015 49.7587 73.2443C50.4136 76.1872 52.3861 78.6396 54.3092 80.9726L59.699 87.5382C61.1881 89.3548 62.8176 91.2673 65.0889 91.9006C68.4101 92.827 71.7314 90.7146 74.603 88.8046C83.1747 83.1008 92.3372 78.3363 101.932 74.5938C102.87 74.2305 103.831 73.862 104.603 73.2132C106.204 71.8689 106.654 69.3906 105.762 67.5039C104.871 65.6173 102.795 64.3898 100.703 64.3743C98.6105 64.3587 96.5757 65.4642 95.3178 67.1354C94.7175 67.9321 94.2783 68.843 93.6988 69.6527C92.2331 71.6873 89.9462 72.9459 87.7086 74.0825C82.3135 76.8313 76.7597 79.2577 71.0765 81.3488C70.037 81.7277 68.8649 82.0885 67.8852 81.5876C67.2849 81.2788 66.8795 80.6949 66.5156 80.124C64.8577 77.518 63.539 74.7117 62.5915 71.7729C61.882 69.5671 61.3077 67.164 59.6029 65.5965C57.186 63.3751 52.8097 63.9071 50.9983 66.6346C50.9983 66.6346 48.8751 69.7357 50.1745 71.0333C51.4739 72.3309 53.002 65.5758 53.002 65.5758Z" fill="#FBBEBE"/>
<path d="M198.752 54.8372C199.131 55.8467 199.142 56.9522 199.087 58.0292C199.019 59.3423 198.689 60.8838 197.468 61.3847C196.673 61.7039 195.69 61.4625 194.983 61.9452C194.126 62.5265 194.167 63.7773 194.3 64.7998C194.666 67.6103 195.08 70.5246 196.613 72.9017C197.437 74.1759 198.552 75.2373 199.682 76.252C201.935 78.2814 204.407 80.2641 207.367 80.9414C207.849 81.0771 208.356 81.0984 208.848 81.0037C209.333 80.8541 209.773 80.5865 210.129 80.2251C211.844 78.6525 212.728 76.4077 213.871 74.3732C214.68 72.9173 215.644 71.5185 216.099 69.9148C216.473 68.5135 216.448 67.0355 216.027 65.6476C215.605 64.2596 214.804 63.0169 213.713 62.0594C213.206 61.626 212.645 61.2627 212.154 60.8137C210.87 59.6511 210.121 57.9825 209.815 56.2801C209.508 54.5777 209.555 52.826 209.703 51.0899C207.104 50.89 204.524 51.204 201.987 51.7101C200.859 51.9359 199.271 52.0397 198.25 52.5769C197.101 53.1867 198.437 53.9678 198.752 54.8372Z" fill="#FBBEBE"/>
<path opacity="0.1" d="M198.752 54.8372C199.131 55.8467 199.142 56.9522 199.087 58.0292C199.019 59.3423 198.689 60.8838 197.468 61.3847C196.673 61.7039 195.69 61.4625 194.983 61.9452C194.126 62.5265 194.167 63.7773 194.3 64.7998C194.666 67.6103 195.08 70.5246 196.613 72.9017C197.437 74.1759 198.552 75.2373 199.682 76.252C201.935 78.2814 204.407 80.2641 207.367 80.9414C207.849 81.0771 208.356 81.0984 208.848 81.0037C209.333 80.8541 209.773 80.5865 210.129 80.2251C211.844 78.6525 212.728 76.4077 213.871 74.3732C214.68 72.9173 215.644 71.5185 216.099 69.9148C216.473 68.5135 216.448 67.0355 216.027 65.6476C215.605 64.2596 214.804 63.0169 213.713 62.0594C213.206 61.626 212.645 61.2627 212.154 60.8137C210.87 59.6511 210.121 57.9825 209.815 56.2801C209.508 54.5777 209.555 52.826 209.703 51.0899C207.104 50.89 204.524 51.204 201.987 51.7101C200.859 51.9359 199.271 52.0397 198.25 52.5769C197.101 53.1867 198.437 53.9678 198.752 54.8372Z" fill="black"/>
<path d="M184.251 62.4746C180.03 61.0291 178.014 55.3822 173.596 54.749C172.899 54.6478 172.184 54.6867 171.501 54.5258C168.957 53.9237 167.863 50.9861 167.127 48.4818C164.648 40.1333 161.41 31.9639 156.81 24.5627C154.869 21.4486 151.8 18.8898 150.399 15.4798C150.077 14.7013 149.913 13.8138 149.333 13.1987C148.754 12.5837 147.514 12.4954 147.2 13.2792C147.112 13.5568 147.093 13.8514 147.143 14.1381L147.447 17.3691L142.161 16.8942C141.672 16.8109 141.17 16.8465 140.698 16.998C140.188 17.2528 139.781 17.6753 139.546 18.1943C137.758 21.5498 139.663 25.9459 142.818 28.0687C146.503 30.547 151.766 30.9233 154.214 34.6213C155.669 36.822 155.698 39.6532 156.657 42.1108C157.114 43.2864 157.782 44.366 158.315 45.5052C159.331 47.6773 159.851 50.0389 160.638 52.3018C161.766 55.5379 163.437 58.5534 165.103 61.5508C166.387 63.8656 167.702 66.2219 169.677 67.9918C170.976 69.1544 172.504 70.016 174.032 70.8464C177.79 72.8966 182.221 74.8688 186.202 73.2962C186.431 69.7513 185.54 65.7989 184.251 62.4746Z" fill="#FBBEBE"/>
<path d="M197.065 174.189C196.745 177.575 194.687 180.643 194.206 183.902C191.036 183.407 187.915 182.768 184.895 182.042C184.523 181.953 184.154 181.863 183.783 181.782C185.493 177.111 184.004 171.879 184.456 166.904C184.5 166.427 184.562 165.949 184.646 165.477C188.562 164.143 192.099 162.363 196.205 162.882C196.286 163.712 196.369 164.545 196.449 165.376C196.614 167.035 196.777 168.692 196.938 170.348C197.103 171.621 197.145 172.907 197.065 174.189Z" fill="#FBBEBE"/>
<path d="M224.15 182.659C222.611 183.126 221.031 183.534 219.381 183.869C219.105 183.926 218.827 183.98 218.549 184.032C216.86 184.349 215.15 184.58 213.422 184.738C213.245 181.131 210.823 177.814 210.47 174.111C210.397 173.191 210.407 172.266 210.498 171.347C210.529 170.984 210.566 170.621 210.6 170.257L211.332 162.791C211.916 162.718 212.504 162.689 213.092 162.705C216.47 162.786 219.545 164.247 222.892 165.386C223.141 166.961 223.228 168.558 223.152 170.151C223.024 174.204 222.372 178.307 223.879 182.026C223.965 182.236 224.059 182.446 224.15 182.659Z" fill="#FBBEBE"/>
<path d="M180.282 125.738C180.737 129.278 178.926 132.667 178.141 136.147C177.621 138.449 177.551 140.818 177.481 143.18L177.07 157.326C177.029 158.74 176.992 160.18 177.424 161.538C178.292 164.257 180.966 166.095 183.749 166.749C186.532 167.403 189.443 167.07 192.278 166.697C193.669 166.512 195.119 166.297 196.27 165.495C197.853 164.392 198.544 162.428 199.142 160.596L200.828 155.424C202.77 159.789 201.948 164.561 203.113 169.193C203.187 169.621 203.366 170.025 203.632 170.369C204.123 170.914 204.932 170.999 205.667 171.051C210.761 171.409 215.925 171.765 220.935 170.792C222.312 170.532 223.749 170.112 224.701 169.079C225.808 167.877 226 166.11 225.987 164.478C225.917 158.87 223.887 153.459 223.435 147.869C223.24 145.474 223.336 143.066 223.25 140.663C223.183 138.855 223.014 137.053 222.744 135.265C222.658 134.446 222.433 133.647 222.078 132.903C221.299 131.45 219.68 130.661 218.146 130.049C206.234 125.216 193.131 125.263 180.282 125.738Z" fill="#F86D70"/>
<path d="M202.338 56.1036C208.51 56.1036 213.513 51.1076 213.513 44.9447C213.513 38.7817 208.51 33.7857 202.338 33.7857C196.166 33.7857 191.163 38.7817 191.163 44.9447C191.163 51.1076 196.166 56.1036 202.338 56.1036Z" fill="#FBBEBE"/>
<path d="M212.078 64.6C211.249 66.4166 209.945 68.2332 208.003 68.6951C206.218 69.1233 204.326 68.2643 203.011 66.9849C201.696 65.7055 200.836 64.0447 199.924 62.4539C199.259 61.2913 198.518 60.1183 197.393 59.3865C195.854 58.3899 193.869 58.4159 192.055 58.7091C190.241 59.0024 188.44 59.5266 186.597 59.4072C184.303 59.2541 181.964 58.1097 179.799 58.8726C180.501 62.0075 180.248 65.4538 180.168 68.6666C180.182 69.1626 180.111 69.6575 179.96 70.1302C179.771 70.571 179.516 70.9805 179.204 71.3447L177.125 74.0203C179.355 75.6863 181.283 77.861 182.062 80.5314C182.502 82.0521 182.366 83.6663 182.351 85.2493C182.302 89.8971 183.312 94.5268 182.993 99.1642C182.619 104.596 180.446 109.729 179.326 115.057C178.367 119.63 178.186 124.333 178.791 128.966C190.438 132.991 202.439 135.052 214.752 135.727C216.928 135.846 219.277 135.864 221.062 134.616C222.546 133.578 223.378 131.8 223.661 130.01C223.944 128.219 223.749 126.397 223.552 124.596C223.017 119.726 222.482 114.856 221.948 109.986C221.644 107.214 221.34 104.427 221.538 101.648C221.686 99.5717 222.112 97.5345 222.536 95.5026L225.135 83.0305C225.506 81.258 225.88 79.4726 226.616 77.8195C227.219 76.47 228.053 75.2244 228.718 73.9113C229.511 72.3368 230.058 70.6503 230.34 68.9105C230.453 68.4055 230.446 67.8811 230.319 67.3794C230.041 66.5282 229.191 66.0169 228.399 65.5991C223.565 63.0626 218.385 61.2483 213.024 60.2143C212.66 61.7428 212.731 63.1753 212.078 64.6Z" fill="#E3E8F4"/>
<path d="M211 57.1261C212.299 54.64 214.729 52.8961 216.14 50.467C216.92 49.09 217.356 47.5454 217.411 45.9643C217.467 44.3832 217.139 42.8121 216.457 41.3842C215.961 40.3721 215.288 39.443 214.898 38.3842C214.464 37.1801 214.422 35.854 213.921 34.6758C213.232 33.0617 211.74 31.8991 210.116 31.2295C208.492 30.56 206.738 30.3186 204.989 30.0851L199.084 29.291C198.229 29.1768 197.343 29.0626 196.512 29.291C195.68 29.5193 194.906 30.1967 194.838 31.0582C194.757 32.0781 195.654 33.0279 195.446 34.0296C195.371 34.3826 195.163 34.7407 195.282 35.0832C195.389 35.3121 195.573 35.4959 195.802 35.6023C197.203 36.3808 198.877 36.4509 200.394 36.9595C201.912 37.4682 203.435 38.7449 203.281 40.3332C203.198 41.1869 202.647 42.0745 203.022 42.84C203.38 43.5485 204.321 43.6782 205.072 43.8988C207.502 44.6021 209.207 47.2335 208.853 49.7378C208.744 50.5164 208.463 51.2612 208.406 52.0423C208.217 54.7775 208.648 55.5586 210.885 57.1495L211 57.1261Z" fill="#3F3D56"/>
<path d="M226.179 68.9546C226.191 69.4726 226.097 69.9876 225.901 70.4676C225.09 72.1933 222.608 72.0843 220.963 73.0627C218.916 74.2824 218.463 77.0046 218.276 79.3766C218.063 82.0625 217.918 84.7874 218.469 87.4214C219.02 90.0554 220.345 92.6246 222.559 94.1687C225.254 96.0397 228.918 96.1046 231.995 94.9654C235.072 93.8261 237.642 91.6229 239.872 89.2146C241.988 86.9309 243.882 84.3851 245.018 81.4864C245.218 80.9674 245.395 80.4172 245.233 79.8982C244.992 79.1196 244.142 78.7667 243.451 78.3411C241.837 77.368 240.761 75.6707 240.202 73.8775C239.643 72.0843 239.55 70.1769 239.532 68.2955C239.511 66.3413 239.506 64.2056 238.258 62.6978C237.011 61.1901 234.849 60.7671 232.879 60.7826C231.268 60.7826 226.808 60.9357 225.709 62.3397C224.807 63.5075 226.244 67.2834 226.179 68.9546Z" fill="#BE6F72"/>
<path opacity="0.1" d="M226.179 68.9546C226.191 69.4726 226.097 69.9876 225.901 70.4676C225.09 72.1933 222.608 72.0843 220.963 73.0627C218.916 74.2824 218.463 77.0046 218.276 79.3766C218.063 82.0625 217.918 84.7874 218.469 87.4214C219.02 90.0554 220.345 92.6246 222.559 94.1687C225.254 96.0397 228.918 96.1046 231.995 94.9654C235.072 93.8261 237.642 91.6229 239.872 89.2146C241.988 86.9309 243.882 84.3851 245.018 81.4864C245.218 80.9674 245.395 80.4172 245.233 79.8982C244.992 79.1196 244.142 78.7667 243.451 78.3411C241.837 77.368 240.761 75.6707 240.202 73.8775C239.643 72.0843 239.55 70.1769 239.532 68.2955C239.511 66.3413 239.506 64.2056 238.258 62.6978C237.011 61.1901 234.849 60.7671 232.879 60.7826C231.268 60.7826 226.808 60.9357 225.709 62.3397C224.807 63.5075 226.244 67.2834 226.179 68.9546Z" fill="black"/>
<path d="M212.322 138.55C212.403 138.946 212.59 139.312 212.863 139.609C213.12 139.811 213.419 139.952 213.739 140.022C222.268 142.521 231.379 141.524 240.21 140.504C239.001 136.83 237.785 133.113 237.45 129.26C237.172 126.081 237.484 122.772 236.356 119.79C236.023 118.908 216.636 122.969 214.724 123.299C213.744 123.467 212.616 123.41 211.922 124.186C211.085 125.126 211.015 127.363 210.927 128.533C210.677 131.914 211.377 135.319 212.322 138.55Z" fill="#BE6F72"/>
<path d="M231.743 179.745C230.184 180.466 228.575 181.138 226.909 181.741C226.009 182.068 225.089 182.374 224.15 182.659C222.611 183.126 221.031 183.534 219.381 183.869C218.44 181.486 217.498 179.103 216.556 176.719C215.862 174.965 215.168 173.203 214.589 171.409C214.186 170.185 213.854 168.938 213.596 167.675C212.745 163.382 212.967 158.946 214.24 154.759C217.842 155.437 221.364 155.878 224.911 156.392C226.806 156.651 228.705 156.957 230.628 157.318C230.779 158.569 230.916 159.82 231.039 161.071C231.226 163.001 231.379 164.932 231.499 166.863C231.764 171.153 231.845 175.447 231.743 179.745Z" fill="#BE6F72"/>
<path opacity="0.1" d="M231.743 179.745C230.184 180.466 228.575 181.138 226.909 181.741C226.009 182.068 225.089 182.374 224.15 182.659C222.611 183.126 221.031 183.534 219.381 183.869C218.44 181.486 217.498 179.103 216.556 176.719C215.862 174.965 215.168 173.203 214.589 171.409C214.186 170.185 213.854 168.938 213.596 167.675C212.745 163.382 212.967 158.946 214.24 154.759C217.842 155.437 221.364 155.878 224.911 156.392C226.806 156.651 228.705 156.957 230.628 157.318C230.779 158.569 230.916 159.82 231.039 161.071C231.226 163.001 231.379 164.932 231.499 166.863C231.764 171.153 231.845 175.447 231.743 179.745Z" fill="black"/>
<path d="M251.728 168.5C251.749 169.995 251.322 171.521 250.927 172.987C250.899 173.091 250.873 173.192 250.847 173.296C249.907 173.004 249.096 172.397 248.552 171.578C248.271 171.134 248.063 170.648 247.936 170.138C246.76 170.937 245.573 171.729 244.376 172.512C240.459 175.081 236.32 177.632 231.743 179.745C230.184 180.466 228.575 181.138 226.909 181.74C226.563 180.529 226.234 179.311 225.922 178.084C225.581 176.821 225.314 175.54 225.121 174.246C224.741 171.307 225.036 168.321 225.984 165.513L226.101 165.176C226.543 163.927 227.113 162.728 227.803 161.597C228.45 160.559 229.732 160.733 231.039 161.078C231.631 161.231 232.232 161.416 232.777 161.53C236.174 162.241 239.701 161.506 243.173 161.701C244.827 161.784 246.449 162.196 247.941 162.913C249.612 163.751 250.959 165.033 251.486 166.806C251.561 167.061 251.618 167.321 251.658 167.584C251.701 167.888 251.725 168.194 251.728 168.5Z" fill="#BE6F72"/>
<path d="M189.206 48.9826C183.84 43.7924 177.741 39.3937 171.501 35.2805C169.877 34.2636 168.315 33.1519 166.823 31.9509C165.264 30.6534 163.905 29.13 162.249 27.9623C160.594 26.7945 158.546 25.9926 156.558 26.3766C154.57 26.7607 152.803 28.6603 153.094 30.6482C153.354 32.3973 154.929 33.5962 156.384 34.6005C159.139 36.5027 161.906 38.4102 164.903 39.9023C165.944 40.3735 166.953 40.9109 167.925 41.5113C169.791 42.7673 171.15 44.6254 172.561 46.3719C177.887 52.9784 184.411 58.5246 191.792 62.7211C191.881 62.773 194.955 56.1477 194.825 55.2887C194.539 53.3138 190.62 50.3528 189.206 48.9826Z" fill="#BE6F72"/>
<path d="M235.106 132.846C230.963 133.106 226.99 134.502 222.938 135.392C218.887 136.282 214.485 136.627 210.724 134.873L213.011 150.467C213.138 151.334 213.271 152.221 213.081 153.075C212.907 153.89 212.455 154.658 212.494 155.491C212.554 156.809 213.793 157.736 214.96 158.346C218.35 160.133 222.148 161.007 225.979 160.881C225.696 162.023 225.342 163.152 225.056 164.294C226.967 166.341 230.09 166.479 232.816 167.128C234.895 167.618 236.845 168.469 238.882 169.069C241.346 169.795 243.904 170.151 246.473 170.125C248.206 170.107 250.044 169.865 251.39 168.786C253.045 167.455 253.56 165.192 253.918 163.1C254.119 161.932 254.303 160.749 254.178 159.571C254.043 158.216 253.518 156.934 252.998 155.678L249.438 147.049C248.791 145.492 248.139 143.912 247.359 142.409C244.812 137.549 240.587 132.506 235.106 132.846Z" fill="#3F3D56"/>
<path d="M238.277 78.9665C238.584 78.1592 239.152 77.4769 239.891 77.0273C240.63 76.5777 241.497 76.3862 242.357 76.483C243.396 76.6283 244.324 77.1967 245.215 77.752L250.179 80.8454C251.001 81.3341 251.791 81.8768 252.541 82.4699C255.964 85.3038 257.284 89.962 257.661 94.3867C258.038 98.8113 257.661 103.311 258.542 107.663C256.447 109.397 254.124 110.863 252.029 112.594C250.933 113.5 249.823 114.41 248.991 115.576C248.331 116.492 247.861 117.54 247.172 118.43C246.045 119.837 244.408 120.745 242.617 120.958C243.752 121.617 244.389 122.896 244.696 124.171C245.002 125.445 245.085 126.766 245.426 128.04C245.894 129.771 246.863 131.351 247.183 133.116C247.406 134.333 247.307 135.581 247.388 136.817C247.793 143.208 252.817 148.796 252.492 155.19C250.121 154.33 247.878 153.152 245.823 151.689C244.898 151.027 244.004 150.311 243.128 149.598L236.509 144.239C233.29 141.644 230.038 138.991 227.479 135.732C225.873 133.687 224.563 131.424 222.952 129.384C221.34 127.345 219.357 125.492 216.896 124.635C216.535 125.178 215.893 125.554 215.532 126.096C215.468 126.182 215.418 126.276 215.381 126.377C215.337 126.618 215.367 126.868 215.467 127.093C215.757 128.142 215.932 129.221 215.987 130.308L216.151 132.26C216.212 132.777 216.212 133.299 216.151 133.817C215.904 135.485 214.355 136.78 212.684 137.04C212.442 137.092 212.191 137.084 211.954 137.016C211.488 136.861 211.231 136.37 211.091 135.903C210.433 133.687 211.442 131.349 211.522 129.042C211.533 128.456 211.514 127.871 211.462 127.287L211.306 124.986C209.797 124.672 208.929 123.052 208.528 121.565C207.447 117.551 206.358 113.396 206.985 109.285C207.151 108.185 207.442 107.069 207.245 105.969C206.985 104.497 205.924 103.303 205.366 101.918C203.547 97.3996 207.411 92.4948 207.052 87.6446C206.902 85.6074 205.607 83.8375 204.828 81.9483C204.424 80.8471 203.901 79.7933 203.268 78.8056C202.473 77.6716 201.4 76.7633 200.358 75.8498C197.139 73.0299 194.087 70.0267 191.215 66.8552C189.741 66.7024 188.357 66.0696 187.278 65.0542C186.592 64.4054 186.028 63.549 186.01 62.607C185.992 61.6649 186.688 60.6762 187.632 60.6269C188.183 60.5984 188.697 60.8708 189.235 60.9902C190.919 61.3587 192.613 60.1209 193.365 58.5664C194.116 57.0119 194.116 55.2239 194.103 53.5007C194.926 53.3548 195.772 53.4232 196.561 53.6991C197.35 53.975 198.054 54.4492 198.606 55.076C199.768 56.3372 200.524 57.9098 201.439 59.3579C201.811 60.0013 202.289 60.5776 202.853 61.0629C204.103 62.0542 205.904 62.2411 206.995 63.3985C207.549 63.9902 207.855 64.7739 208.362 65.4071C209.786 67.1899 212.393 67.4079 214.339 68.5809C216.286 69.7539 217.64 71.8975 219.797 72.5929C220.576 72.8525 221.426 72.8862 222.198 73.1742C223.981 73.836 225.07 75.7278 225.316 77.6093C225.563 79.4907 225.142 81.393 224.716 83.2459L223.716 87.5823C223.495 88.5425 223.326 89.6973 224.035 90.3824C224.371 90.6594 224.764 90.8572 225.187 90.9611C227.006 91.5528 229.033 92.1341 230.743 91.2959C231.551 90.8962 232.185 90.2215 232.765 89.5312C235.301 86.5468 236.988 82.6386 238.277 78.9665Z" fill="#DD2C00"/>
<path d="M258.789 167.213C258.43 169.588 257.12 171.923 254.976 173.011C253.691 173.644 252.207 173.746 250.847 173.296C249.907 173.004 249.097 172.397 248.552 171.578C248.271 171.134 248.063 170.648 247.936 170.138C247.936 170.112 247.923 170.083 247.918 170.057C247.723 169.139 247.642 168.201 247.676 167.262C247.676 165.806 247.762 164.351 247.936 162.905C248.081 161.688 248.321 160.484 248.653 159.303C249.137 157.619 249.833 155.997 250.473 154.373C250.805 153.516 251.125 152.657 251.387 151.777C251.546 151.258 251.681 150.724 251.79 150.184L251.829 149.989C251.85 149.88 251.868 149.771 251.886 149.662C252.146 148.183 252.222 146.652 252.889 145.316C254.449 142.178 257.484 142.98 257.947 145.874C257.982 146.098 258.002 146.324 258.006 146.551C258.077 150.213 256.621 153.791 257.287 157.466C257.474 158.362 257.71 159.247 257.993 160.118C258.227 160.92 258.438 161.732 258.599 162.555C258.925 164.086 258.989 165.661 258.789 167.213Z" fill="#BE6F72"/>
<path d="M260.218 126.496C260.288 127.996 260.218 129.514 260.519 130.985C261.224 134.463 263.898 137.541 263.602 141.075C263.529 141.937 263.209 142.863 262.456 143.289C261.702 143.714 260.455 143.681 260.208 144.537C260.137 144.776 260.174 145.035 260.096 145.271C259.932 145.775 259.316 145.99 258.796 145.977C258.277 145.964 257.757 145.793 257.219 145.837C255.335 145.996 254.644 148.513 252.965 149.377C251.834 149.958 250.366 149.636 249.433 148.777C248.5 147.918 248.092 146.579 248.165 145.31C248.219 144.353 248.524 143.429 248.685 142.484C248.978 140.8 248.825 139.074 248.672 137.372C248.446 134.878 248.212 132.353 247.39 129.989C247.003 128.873 246.489 127.806 246.153 126.675C245.675 125.074 245.566 123.39 245.517 121.721C245.415 118.21 245.657 114.455 247.757 111.631C249.334 109.514 251.595 107.793 253.381 105.834C254.498 104.606 254.82 104.222 256.055 105.263C257.071 106.117 258.134 107.295 258.248 108.452C258.56 111.418 258.248 114.335 258.804 117.356C259.36 120.377 260.072 123.395 260.218 126.496Z" fill="#DD2C00"/>
<path d="M233.263 69.3387C240.583 69.3387 246.517 63.4131 246.517 56.1036C246.517 48.7941 240.583 42.8686 233.263 42.8686C225.944 42.8686 220.01 48.7941 220.01 56.1036C220.01 63.4131 225.944 69.3387 233.263 69.3387Z" fill="#BE6F72"/>
<path d="M245.4 81.4215C245.691 81.0141 246.036 80.5755 246.53 80.4899C246.903 80.4618 247.276 80.5401 247.606 80.7156L251.096 82.1715C252.039 80.6161 252.595 78.8577 252.718 77.0436C252.791 75.9303 252.702 74.8014 252.915 73.7062C253.232 72.0817 254.197 70.6259 254.42 68.9857C254.597 67.6622 254.277 66.3309 254.085 65.01C253.492 60.9305 254.129 56.768 253.789 52.6599C253.448 48.5519 251.798 44.1506 248.128 42.2639C247.089 41.7449 245.969 41.4335 244.888 41.0235C242.479 40.1074 240.319 38.6411 237.939 37.6498C235.558 36.6585 232.762 36.2043 230.454 37.3436C228.146 38.4829 226.803 41.6878 228.302 43.7795C228.796 44.4672 229.519 44.955 230.21 45.4507C231.616 46.455 233.05 47.6955 233.375 49.3927C233.957 52.4471 230.776 54.8424 229.88 57.8294C229.549 58.9958 229.519 60.2271 229.794 61.408C230.181 63.1779 231.127 64.8491 231.093 66.6605C231.067 68.6458 229.877 70.4442 229.654 72.4191C229.573 73.1431 229.623 73.8775 229.532 74.599C229.371 75.5506 229.089 76.4778 228.692 77.3576C226.613 82.5478 224.506 87.7925 221.416 92.4585C224.724 92.5145 227.994 91.7513 230.935 90.2371C230.512 92.2375 229.703 94.1362 228.552 95.8269C231.196 95.5213 233.739 94.6351 236 93.2318C235.451 95.1932 234.657 97.0775 233.635 98.8399C233.723 98.6893 235.358 98.3208 235.66 98.1496C236.279 97.7977 236.778 97.2666 237.089 96.6262C237.972 95.0484 238.523 93.1462 239.342 91.5061C241.092 87.9906 243.118 84.6185 245.4 81.4215Z" fill="#3F3D56"/>
<path d="M144.884 1.99822C144.255 2.06155 143.621 2.0763 142.99 2.04234C142.882 2.03059 142.774 2.06154 142.689 2.12852C142.604 2.1955 142.549 2.29316 142.535 2.40046L141.327 11.4522C141.234 12.1093 140.964 12.7289 140.547 13.2454C140.203 13.6564 139.947 14.1337 139.796 14.6475C139.644 15.1613 139.6 15.7008 139.666 16.2324V31.6084C139.666 31.6084 139.588 33.6585 141.165 33.6585C143.053 33.8954 144.964 33.8954 146.852 33.6585C146.852 33.6585 148.115 33.4198 148.115 31.5279V16.3881C148.211 15.8599 148.191 15.3171 148.056 14.7973C147.922 14.2775 147.676 13.7931 147.335 13.3778C146.932 12.8594 146.671 12.2448 146.579 11.5949L145.323 2.35375C145.309 2.24985 145.256 2.15528 145.174 2.08924C145.093 2.0232 144.989 1.99066 144.884 1.99822Z" fill="#3F3D56"/>
<path d="M144.892 16.5075H142.977C141.391 16.5075 140.105 17.7914 140.105 19.3751V26.5713C140.105 28.155 141.391 29.4389 142.977 29.4389H144.892C146.478 29.4389 147.764 28.155 147.764 26.5713V19.3751C147.764 17.7914 146.478 16.5075 144.892 16.5075Z" fill="#DD2C00"/>
<path d="M162.816 15.2333C162.186 15.2966 161.553 15.3113 160.921 15.2774C160.814 15.2656 160.706 15.2966 160.621 15.3636C160.535 15.4305 160.48 15.5282 160.467 15.6355L159.258 24.6872C159.165 25.3443 158.896 25.964 158.478 26.4805C158.134 26.8915 157.879 27.3687 157.727 27.8825C157.576 28.3964 157.531 28.9358 157.597 29.4674V44.8434C157.597 44.8434 157.52 46.8936 159.097 46.8936C160.985 47.1305 162.895 47.1305 164.783 46.8936C164.783 46.8936 166.046 46.6548 166.046 44.763V29.6231C166.142 29.0949 166.123 28.5521 165.988 28.0323C165.853 27.5125 165.607 27.0281 165.266 26.6128C164.863 26.0944 164.602 25.4799 164.51 24.83L163.255 15.5888C163.241 15.4849 163.187 15.3903 163.106 15.3243C163.024 15.2582 162.921 15.2257 162.816 15.2333Z" fill="#3F3D56"/>
<path d="M162.824 29.7425H160.908C159.322 29.7425 158.037 31.0264 158.037 32.6101V39.8064C158.037 41.3901 159.322 42.674 160.908 42.674H162.824C164.41 42.674 165.695 41.3901 165.695 39.8064V32.6101C165.695 31.0264 164.41 29.7425 162.824 29.7425Z" fill="#DD2C00"/>
<g opacity="0.2">
<path opacity="0.2" d="M142.66 170.299C142.651 170.579 142.619 170.857 142.564 171.132C140.755 170.845 138.936 170.585 137.106 170.353C137.106 170.281 137.106 170.205 137.106 170.13C137.123 169.352 137.347 168.592 137.756 167.929C138.291 167.083 139.105 166.554 140.001 166.583C140.898 166.611 141.675 167.19 142.156 168.064C142.519 168.751 142.693 169.522 142.66 170.299Z" fill="#3F3D56"/>
<path opacity="0.2" d="M142.806 165.867C142.869 163.86 141.676 162.194 140.141 162.146C138.606 162.097 137.31 163.685 137.247 165.692C137.183 167.699 138.376 169.365 139.911 169.413C141.446 169.462 142.742 167.874 142.806 165.867Z" fill="#3F3D56"/>
<path opacity="0.2" d="M142.947 161.424C143.011 159.417 141.818 157.751 140.283 157.703C138.748 157.654 137.452 159.242 137.389 161.249C137.325 163.256 138.518 164.922 140.053 164.97C141.588 165.019 142.884 163.431 142.947 161.424Z" fill="#3F3D56"/>
<path opacity="0.2" d="M143.087 156.981C143.15 154.974 141.957 153.308 140.422 153.26C138.887 153.211 137.591 154.799 137.528 156.806C137.464 158.813 138.657 160.479 140.192 160.528C141.727 160.576 143.023 158.988 143.087 156.981Z" fill="#3F3D56"/>
<path opacity="0.2" d="M143.228 152.538C143.292 150.531 142.099 148.865 140.564 148.817C139.029 148.768 137.733 150.356 137.67 152.363C137.606 154.37 138.799 156.036 140.334 156.085C141.869 156.133 143.165 154.545 143.228 152.538Z" fill="#3F3D56"/>
<path opacity="0.2" d="M130.991 121.708C130.625 121.213 130.295 120.693 130.004 120.151L137.348 119.183L129.442 118.993C128.737 117.322 128.38 115.525 128.394 113.712C128.408 111.899 128.792 110.107 129.523 108.447L139.949 114.273L130.399 106.789C131.362 105.233 132.637 103.892 134.142 102.849C135.648 101.807 137.353 101.086 139.15 100.732C140.947 100.377 142.799 100.396 144.588 100.788C146.378 101.18 148.067 101.936 149.551 103.009C151.035 104.082 152.281 105.45 153.212 107.025C154.143 108.601 154.738 110.351 154.961 112.167C155.184 113.983 155.03 115.825 154.508 117.579C153.986 119.333 153.107 120.96 151.927 122.359C152.496 123.129 152.98 123.958 153.369 124.832L143.73 129.452L153.951 126.382C154.595 128.503 154.699 130.75 154.253 132.921C153.808 135.092 152.827 137.118 151.399 138.815C152.883 140.825 153.771 143.212 153.96 145.703C154.149 148.193 153.633 150.687 152.47 152.898C151.307 155.109 149.545 156.949 147.384 158.207C145.223 159.465 142.752 160.09 140.252 160.012C137.752 159.933 135.325 159.153 133.248 157.762C131.171 156.37 129.528 154.423 128.506 152.143C127.485 149.863 127.127 147.342 127.474 144.869C127.82 142.395 128.856 140.069 130.464 138.156C128.691 135.753 127.778 132.825 127.872 129.842C127.967 126.859 129.062 123.994 130.983 121.708H130.991Z" fill="#DD2C00"/>
<path opacity="0.1" d="M154.518 130.682C154.427 133.666 153.328 136.533 151.399 138.815C152.883 140.825 153.771 143.212 153.96 145.703C154.15 148.193 153.633 150.687 152.47 152.898C151.307 155.109 149.545 156.949 147.384 158.207C145.223 159.465 142.752 160.09 140.252 160.011C137.752 159.933 135.325 159.153 133.248 157.762C131.171 156.37 129.528 154.423 128.507 152.143C127.485 149.863 127.127 147.342 127.474 144.869C127.82 142.395 128.856 140.069 130.464 138.156C128.756 135.838 154.565 129.19 154.518 130.682Z" fill="black"/>
</g>
</svg>
