<svg width="223" height="223" viewBox="0 0 223 223" fill="none" xmlns="http://www.w3.org/2000/svg">
<g filter="url(#filter0_d)">
<rect x="20" y="20" width="183" height="183" rx="10" fill="#979797"/>
<path d="M138.051 102.805C137.791 102.805 137.54 102.842 137.286 102.866C137.073 101.128 136.426 99.4678 135.401 98.035L127.881 110.831H146.221C146.221 108.703 145.36 106.661 143.828 105.156C142.296 103.651 140.218 102.805 138.051 102.805V102.805Z" fill="white"/>
<path d="M125.49 93.4943C124.263 93.6035 123.063 93.9169 121.942 94.4211C121.277 92.2068 119.901 90.2632 118.019 88.8809C116.137 87.4985 113.85 86.7515 111.5 86.7515C109.15 86.7515 106.863 87.4985 104.981 88.8809C103.099 90.2632 101.723 92.2068 101.058 94.4211C99.4998 93.7155 97.7941 93.3822 96.0801 93.4485C94.366 93.5148 92.6923 93.9787 91.1957 94.8023C89.6992 95.6259 88.4223 96.7859 87.4695 98.1873C86.5168 99.5887 85.9152 101.192 85.7139 102.865C85.4597 102.842 85.2093 102.805 84.9486 102.805C82.7818 102.805 80.7039 103.65 79.1718 105.156C77.6397 106.661 76.7789 108.702 76.7789 110.831H115.303L125.49 93.4943Z" fill="white"/>
<path d="M124.736 110.831L145.175 76.0504L140.459 73.375L118.447 110.831H124.736Z" fill="white"/>
<path d="M122.746 89.9732L130.927 76.0504L126.211 73.375L118.707 86.1434C120.307 87.1333 121.682 88.4371 122.746 89.9732V89.9732Z" fill="white"/>
<path d="M97.8839 145.612H125.116V149.625H97.8839V145.612Z" fill="white"/>
<path d="M73.3749 113.507V118.858C73.3749 125.244 75.9571 131.368 80.5534 135.884C85.1498 140.4 91.3837 142.937 97.8839 142.937H125.116C131.616 142.937 137.85 140.4 142.446 135.884C147.043 131.368 149.625 125.244 149.625 118.858V113.507H73.3749Z" fill="white"/>
</g>
<defs>
<filter id="filter0_d" x="0" y="0" width="223" height="223" filterUnits="userSpaceOnUse" color-interpolation-filters="sRGB">
<feFlood flood-opacity="0" result="BackgroundImageFix"/>
<feColorMatrix in="SourceAlpha" type="matrix" values="0 0 0 0 0 0 0 0 0 0 0 0 0 0 0 0 0 0 127 0"/>
<feOffset/>
<feGaussianBlur stdDeviation="10"/>
<feColorMatrix type="matrix" values="0 0 0 0 0 0 0 0 0 0 0 0 0 0 0 0 0 0 0.25 0"/>
<feBlend mode="normal" in2="BackgroundImageFix" result="effect1_dropShadow"/>
<feBlend mode="normal" in="SourceGraphic" in2="effect1_dropShadow" result="shape"/>
</filter>
</defs>
</svg>
