<svg width="21" height="19" viewBox="0 0 21 19" fill="none" xmlns="http://www.w3.org/2000/svg">
<path d="M18.9819 7.46429H12.5678V1.35714C12.5678 0.607746 11.9295 0 11.1425 0H9.7171C8.93004 0 8.29175 0.607746 8.29175 1.35714V7.46429H1.87763C1.09056 7.46429 0.452271 8.07203 0.452271 8.82143V10.1786C0.452271 10.928 1.09056 11.5357 1.87763 11.5357H8.29175V17.6429C8.29175 18.3923 8.93004 19 9.7171 19H11.1425C11.9295 19 12.5678 18.3923 12.5678 17.6429V11.5357H18.9819C19.769 11.5357 20.4073 10.928 20.4073 10.1786V8.82143C20.4073 8.07203 19.769 7.46429 18.9819 7.46429Z" fill="#DD2C00"/>
</svg>
