<svg width="21" height="19" viewBox="0 0 21 19" fill="none" xmlns="http://www.w3.org/2000/svg">
<path d="M12.0678 7.46429V7.96429H12.5678H18.9819C19.5163 7.96429 19.9073 8.371 19.9073 8.82143V10.1786C19.9073 10.629 19.5163 11.0357 18.9819 11.0357H12.5678H12.0678V11.5357V17.6429C12.0678 18.0933 11.6768 18.5 11.1425 18.5H9.7171C9.18279 18.5 8.79175 18.0933 8.79175 17.6429V11.5357V11.0357H8.29175H1.87763C1.34332 11.0357 0.952271 10.629 0.952271 10.1786V8.82143C0.952271 8.371 1.34332 7.96429 1.87763 7.96429H8.29175H8.79175V7.46429V1.35714C8.79175 0.906712 9.18279 0.5 9.7171 0.5H11.1425C11.6768 0.5 12.0678 0.906712 12.0678 1.35714V7.46429Z" stroke="#979797"/>
</svg>
