<svg width="30" height="30" viewBox="0 0 30 30" fill="none" xmlns="http://www.w3.org/2000/svg">
<path d="M15 29.5C6.99187 29.5 0.5 23.0081 0.5 15C0.5 6.99187 6.99187 0.5 15 0.5C23.0081 0.5 29.5 6.99187 29.5 15C29.5 23.0081 23.0081 29.5 15 29.5Z" stroke="#DD2C00"/>
<path d="M16.3181 11.5882C14.6711 10.8353 12.7396 11.2806 11.6239 12.5492L13.3491 14.1666C13.546 14.3511 13.546 14.6471 13.3491 14.8287C13.2522 14.9195 13.124 14.9664 12.9959 14.9664C12.8678 14.9664 12.7396 14.9195 12.6428 14.8287L11.0738 13.3579L7.07034 21.0548C6.97971 21.2306 6.97345 21.4445 7.07034 21.632C7.23911 21.9572 7.66102 22.092 8.00793 21.9337L12.1833 20.0234L10.6457 18.5819C10.4488 18.4003 10.4488 18.1014 10.6457 17.9198C10.8426 17.7381 11.1582 17.7381 11.352 17.9198L13.1334 19.5898L16.3212 18.1307C17.0713 17.7879 17.712 17.2137 18.1058 16.4577C19.0465 14.65 18.2464 12.4701 16.3181 11.5882ZM19.1965 10.5657C19.8059 9.37323 19.4903 7.96394 18.2495 7C16.6775 8.22177 16.6088 10.1497 18.0026 11.4505L18.2527 11.6849C19.6403 12.9917 21.6999 12.9272 23 11.4535C21.9718 10.2903 20.4685 9.99437 19.1965 10.5657Z" fill="#DD2C00"/>
</svg>
