<svg width="30" height="30" viewBox="0 0 30 30" fill="none" xmlns="http://www.w3.org/2000/svg">
<path d="M15 29.5C6.99187 29.5 0.5 23.0081 0.5 15C0.5 6.99187 6.99187 0.5 15 0.5C23.0081 0.5 29.5 6.99187 29.5 15C29.5 23.0081 23.0081 29.5 15 29.5Z" stroke="#DD2C00"/>
<path fill-rule="evenodd" clip-rule="evenodd" d="M8.39996 17.7999C9.72543 17.7999 10.7999 16.7254 10.7999 15.4C10.7999 14.0745 9.72543 13 8.39996 13C7.0745 13 6 14.0745 6 15.4C6 16.7254 7.0745 17.7999 8.39996 17.7999Z" fill="#DD2C00"/>
<path fill-rule="evenodd" clip-rule="evenodd" d="M14.509 17.7999C15.8344 17.7999 16.9089 16.7254 16.9089 15.4C16.9089 14.0745 15.8344 13 14.509 13C13.1835 13 12.109 14.0745 12.109 15.4C12.109 16.7254 13.1835 17.7999 14.509 17.7999Z" stroke="#DD2C00" stroke-width="0.5"/>
<path fill-rule="evenodd" clip-rule="evenodd" d="M20.915 17.7999C22.2405 17.7999 23.315 16.7254 23.315 15.4C23.315 14.0745 22.2405 13 20.915 13C19.5896 13 18.5151 14.0745 18.5151 15.4C18.5151 16.7254 19.5896 17.7999 20.915 17.7999Z" stroke="#DD2C00" stroke-width="0.5"/>
</svg>
