<svg width="55" height="50" viewBox="0 0 55 50" fill="none" xmlns="http://www.w3.org/2000/svg">
<rect width="54.5322" height="50" rx="10" fill="#DD2C00"/>
<path fill-rule="evenodd" clip-rule="evenodd" d="M19.3589 27.5C21.0154 27.5 22.3582 26.2688 22.3582 24.75C22.3582 23.2312 21.0154 22 19.3589 22C17.7025 22 16.3596 23.2312 16.3596 24.75C16.3596 26.2688 17.7025 27.5 19.3589 27.5Z" fill="white"/>
<path fill-rule="evenodd" clip-rule="evenodd" d="M26.9934 27.5C28.6499 27.5 29.9927 26.2688 29.9927 24.75C29.9927 23.2312 28.6499 22 26.9934 22C25.337 22 23.9942 23.2312 23.9942 24.75C23.9942 26.2688 25.337 27.5 26.9934 27.5Z" fill="white"/>
<path fill-rule="evenodd" clip-rule="evenodd" d="M34.9993 27.5C36.6557 27.5 37.9985 26.2688 37.9985 24.75C37.9985 23.2312 36.6557 22 34.9993 22C33.3428 22 32 23.2312 32 24.75C32 26.2688 33.3428 27.5 34.9993 27.5Z" fill="white"/>
</svg>
