<svg width="44" height="38" viewBox="0 0 44 38" fill="none" xmlns="http://www.w3.org/2000/svg">
<rect x="1.47314" y="1" width="40.8631" height="36" rx="7" stroke="#979797" stroke-width="2"/>
<path d="M14.0937 11.2262C16.3515 9.38247 19.8398 9.65941 21.9999 11.7952C24.1601 9.65941 27.6484 9.37868 29.9062 11.2262C32.8437 13.6275 32.414 17.5425 30.3202 19.6176L23.4687 26.3968C23.0781 26.7838 22.5546 27 21.9999 27C21.4413 27 20.9218 26.7876 20.5312 26.4006L13.6796 19.6214C11.5898 17.5463 11.1523 13.6313 14.0937 11.2262ZM15.0156 18.3392L21.8671 25.1184C21.9609 25.2094 22.039 25.2094 22.1328 25.1184L28.9843 18.3392C30.4101 16.928 30.6992 14.2573 28.6992 12.6222C27.1796 11.3817 24.8359 11.5676 23.3671 13.0205L21.9999 14.3749L20.6328 13.0205C19.1562 11.56 16.8124 11.3817 15.3007 12.6184C13.3046 14.2535 13.6015 16.9393 15.0156 18.3392Z" fill="#979797"/>
</svg>
