<svg width="80" height="80" viewBox="0 0 80 80" fill="none" xmlns="http://www.w3.org/2000/svg">
<rect x="2.5" y="2.5" width="75" height="75" rx="2.5" stroke="#9C9C9C" stroke-width="5"/>
<path d="M62.5644 19.2821C56.5708 14.2786 47.6569 15.1786 42.1555 20.7392L40.0008 22.9141L37.8462 20.7392C32.3556 15.1786 23.4308 14.2786 17.4372 19.2821C10.5686 25.0248 10.2076 35.3318 16.3544 41.5567L37.518 62.9634C38.8852 64.3455 41.1055 64.3455 42.4726 62.9634L63.6363 41.5567C69.794 35.3318 69.433 25.0248 62.5644 19.2821V19.2821Z" fill="#9C9C9C"/>
<circle cx="30.5" cy="33.5" r="2.5" fill="#EDEDED"/>
<circle cx="49.5" cy="33.5" r="2.5" fill="#EDEDED"/>
<path d="M49 46L48.7503 45.6538C44.338 39.5353 35.1705 39.7141 31 46V46" stroke="#EDEDED" stroke-width="3"/>
</svg>
