<svg width="25" height="19" viewBox="0 0 25 19" fill="none" xmlns="http://www.w3.org/2000/svg">
<path d="M12.1685 4.9291L4.167 11.3699V18.3214C4.167 18.5013 4.24016 18.674 4.37038 18.8012C4.5006 18.9285 4.67722 19 4.86139 19L9.72473 18.9877C9.90829 18.9868 10.084 18.9149 10.2135 18.7877C10.343 18.6606 10.4156 18.4885 10.4156 18.3091V14.2495C10.4156 14.0695 10.4888 13.8969 10.619 13.7696C10.7493 13.6423 10.9259 13.5708 11.11 13.5708H13.8876C14.0718 13.5708 14.2484 13.6423 14.3786 13.7696C14.5088 13.8969 14.582 14.0695 14.582 14.2495V18.3061C14.5817 18.3954 14.5995 18.4839 14.6342 18.5664C14.669 18.649 14.7201 18.7241 14.7846 18.7873C14.8491 18.8506 14.9258 18.9008 15.0101 18.935C15.0945 18.9692 15.185 18.9869 15.2764 18.9869L20.138 19C20.3222 19 20.4988 18.9285 20.629 18.8012C20.7592 18.674 20.8324 18.5013 20.8324 18.3214V11.3652L12.8326 4.9291C12.7385 4.85501 12.6214 4.81461 12.5006 4.81461C12.3798 4.81461 12.2626 4.85501 12.1685 4.9291ZM24.8078 9.3068L21.1796 6.38395V0.508985C21.1796 0.373994 21.1247 0.244532 21.027 0.149078C20.9294 0.0536252 20.7969 0 20.6588 0H18.2284C18.0903 0 17.9578 0.0536252 17.8602 0.149078C17.7625 0.244532 17.7076 0.373994 17.7076 0.508985V3.58877L13.8221 0.464449C13.4492 0.164563 12.9813 0.000599477 12.4984 0.000599477C12.0155 0.000599477 11.5476 0.164563 11.1747 0.464449L0.189004 9.3068C0.136268 9.3494 0.0926378 9.40173 0.0606055 9.46082C0.0285733 9.5199 0.00876702 9.58458 0.00231847 9.65115C-0.00413009 9.71772 0.00290544 9.78487 0.0230231 9.84878C0.0431407 9.91269 0.0759461 9.9721 0.119565 10.0236L1.22625 11.3385C1.26975 11.3902 1.32326 11.433 1.3837 11.4645C1.44415 11.4959 1.51035 11.5154 1.57852 11.5218C1.64669 11.5283 1.71548 11.5215 1.78096 11.5019C1.84645 11.4823 1.90733 11.4503 1.96013 11.4076L12.1685 3.19007C12.2626 3.11598 12.3798 3.07557 12.5006 3.07557C12.6214 3.07557 12.7385 3.11598 12.8326 3.19007L23.0414 11.4076C23.0941 11.4503 23.1549 11.4823 23.2203 11.502C23.2857 11.5216 23.3544 11.5285 23.4225 11.5222C23.4906 11.5159 23.5568 11.4966 23.6173 11.4653C23.6777 11.434 23.7313 11.3913 23.7749 11.3398L24.8815 10.0249C24.9251 9.97308 24.9578 9.91336 24.9777 9.84917C24.9975 9.78498 25.0043 9.71759 24.9974 9.65086C24.9905 9.58412 24.9703 9.51938 24.9377 9.46033C24.9052 9.40129 24.861 9.34911 24.8078 9.3068Z" fill="#DD2C00"/>
</svg>
