<svg width="25" height="19" viewBox="0 0 25 19" fill="none" xmlns="http://www.w3.org/2000/svg">
<path d="M15.2764 18.4869H15.2777L20.138 18.5C20.1381 18.5 20.1383 18.5 20.1384 18.5C20.1935 18.4999 20.244 18.4784 20.2795 18.4436C20.3148 18.4092 20.3324 18.365 20.3324 18.3214V11.6047L12.5232 5.32186C12.5229 5.32167 12.5227 5.32148 12.5224 5.32129C12.5174 5.3176 12.5097 5.31461 12.5006 5.31461C12.4914 5.31461 12.4838 5.31759 12.4787 5.32128L4.667 11.6093V18.3214C4.667 18.365 4.68462 18.4092 4.71986 18.4436C4.75539 18.4784 4.80595 18.4999 4.86101 18.5C4.86114 18.5 4.86126 18.5 4.86139 18.5L9.72229 18.4877C9.72238 18.4877 9.72247 18.4877 9.72256 18.4877C9.77748 18.4874 9.82779 18.4657 9.86312 18.431C9.89813 18.3966 9.91565 18.3526 9.91565 18.3091V14.2495C9.91565 13.9331 10.0443 13.6321 10.2696 13.412C10.4944 13.1923 10.7969 13.0708 11.11 13.0708H13.8876C14.2007 13.0708 14.5033 13.1923 14.7281 13.412C14.9533 13.6321 15.082 13.9331 15.082 14.2495V18.3061L15.2764 18.4869ZM15.2764 18.4869C15.2492 18.4869 15.2226 18.4816 15.1981 18.4717L15.0101 18.935L15.2764 18.4869ZM24.4941 9.69618L24.4967 9.69824C24.4986 9.69977 24.4995 9.70108 24.4998 9.70168L24.4998 9.70172L24.499 9.70292L24.4989 9.70307L23.3931 11.0169C23.393 11.0169 23.393 11.017 23.393 11.0171C23.3919 11.0182 23.3901 11.0198 23.3874 11.0213C23.3863 11.0218 23.3852 11.0223 23.384 11.0227C23.3817 11.0235 23.3792 11.0241 23.3765 11.0244C23.3722 11.0247 23.368 11.0243 23.3643 11.0232L23.2203 11.502L23.3643 11.0232C23.3605 11.022 23.3577 11.0204 23.3558 11.0189L23.3549 11.0181L13.1461 2.80057L13.1461 2.80055L13.142 2.7973C12.9589 2.65308 12.7325 2.57557 12.5006 2.57557C12.2686 2.57557 12.0422 2.65308 11.8591 2.7973L11.8591 2.79728L11.855 2.80058L1.64661 11.0181L1.64608 11.0186C1.64418 11.0201 1.64136 11.0217 1.63762 11.0229L1.63762 11.0229C1.63386 11.024 1.62967 11.0244 1.62542 11.024C1.62117 11.0236 1.61747 11.0225 1.61454 11.0209C1.61162 11.0194 1.60982 11.0177 1.60882 11.0166L1.60879 11.0165L0.502105 9.70165L0.501153 9.70052C0.500643 9.69992 0.500339 9.69944 0.500164 9.69912C0.500471 9.69855 0.501293 9.69731 0.5031 9.69583C0.503132 9.6958 0.503164 9.69577 0.503197 9.69575L11.4881 0.854076C11.7712 0.626332 12.1283 0.5006 12.4984 0.5006C12.8684 0.5006 13.2255 0.626332 13.5087 0.854076L13.5088 0.854105L17.3943 3.97843L18.2076 4.63241V3.58877V0.509327C18.2078 0.508907 18.2083 0.507981 18.2096 0.506662C18.2127 0.503668 18.2192 0.5 18.2284 0.5H20.6588C20.6679 0.5 20.6745 0.503668 20.6776 0.506662C20.6789 0.507978 20.6794 0.508904 20.6796 0.509324V6.38395V6.62322L20.8659 6.77332L24.4941 9.69618Z" stroke="#979797"/>
</svg>
