<svg width="55" height="50" viewBox="0 0 55 50" fill="none" xmlns="http://www.w3.org/2000/svg">
<rect width="54.5322" height="50" rx="10" fill="#DD2C00"/>
<path fill-rule="evenodd" clip-rule="evenodd" d="M19.3589 27.5C21.0154 27.5 22.3582 26.2688 22.3582 24.75C22.3582 23.2312 21.0154 22 19.3589 22C17.7025 22 16.3596 23.2312 16.3596 24.75C16.3596 26.2688 17.7025 27.5 19.3589 27.5Z" fill="white"/>
<path fill-rule="evenodd" clip-rule="evenodd" d="M26.9934 27.5C28.6499 27.5 29.9927 26.2688 29.9927 24.75C29.9927 23.2312 28.6499 22 26.9934 22C25.337 22 23.9942 23.2312 23.9942 24.75C23.9942 26.2688 25.337 27.5 26.9934 27.5Z" fill="white"/>
<path fill-rule="evenodd" clip-rule="evenodd" d="M34.6279 27V27C35.9832 27 37.0819 25.9926 37.0819 24.75C37.0819 23.5074 35.9832 22.5 34.6279 22.5C33.2726 22.5 32.174 23.5074 32.174 24.75C32.174 25.9926 33.2726 27 34.6279 27V27ZM34.6279 27.5V27.5C32.9715 27.5 31.6287 26.2688 31.6287 24.75C31.6287 23.2312 32.9715 22 34.6279 22C36.2844 22 37.6272 23.2312 37.6272 24.75C37.6272 26.2688 36.2844 27.5 34.6279 27.5V27.5Z" fill="white"/>
</svg>
