<svg width="21" height="19" viewBox="0 0 21 19" fill="none" xmlns="http://www.w3.org/2000/svg">
<path d="M10.1072 9.5C13.2563 9.5 15.8086 7.37363 15.8086 4.75C15.8086 2.12637 13.2563 0 10.1072 0C6.958 0 4.40572 2.12637 4.40572 4.75C4.40572 7.37363 6.958 9.5 10.1072 9.5ZM14.0982 10.6875H13.3543C12.3655 11.066 11.2653 11.2812 10.1072 11.2812C8.94905 11.2812 7.8533 11.066 6.86001 10.6875H6.11615C2.8111 10.6875 0.129639 12.9215 0.129639 15.675V17.2188C0.129639 18.2021 1.0873 19 2.26768 19H17.9466C19.127 19 20.0847 18.2021 20.0847 17.2188V15.675C20.0847 12.9215 17.4032 10.6875 14.0982 10.6875Z" fill="#DD2C00"/>
</svg>
