<svg width="21" height="19" viewBox="0 0 21 19" fill="none" xmlns="http://www.w3.org/2000/svg">
<path d="M15.3086 4.75C15.3086 7.0159 13.0695 9 10.1072 9C7.14478 9 4.90572 7.0159 4.90572 4.75C4.90572 2.4841 7.14478 0.5 10.1072 0.5C13.0695 0.5 15.3086 2.4841 15.3086 4.75ZM10.1072 11.7812C11.2932 11.7812 12.4232 11.567 13.4454 11.1875H14.0982C17.2164 11.1875 19.5847 13.2792 19.5847 15.675V17.2188C19.5847 17.8444 18.9402 18.5 17.9466 18.5H2.26768C1.27409 18.5 0.629639 17.8444 0.629639 17.2188V15.675C0.629639 13.2792 2.99788 11.1875 6.11615 11.1875H6.76926C7.79478 11.5668 8.92053 11.7812 10.1072 11.7812Z" stroke="#979797"/>
</svg>
