<svg width="30" height="30" viewBox="0 0 30 30" fill="none" xmlns="http://www.w3.org/2000/svg">
<path d="M15 29.5C6.99187 29.5 0.5 23.0081 0.5 15C0.5 6.99187 6.99187 0.5 15 0.5C23.0081 0.5 29.5 6.99187 29.5 15C29.5 23.0081 23.0081 29.5 15 29.5Z" stroke="#DD2C00"/>
<path d="M15 14C16.8937 14 18.4286 12.4332 18.4286 10.5C18.4286 8.5668 16.8937 7 15 7C13.1063 7 11.5714 8.5668 11.5714 10.5C11.5714 12.4332 13.1063 14 15 14ZM17.4 14.875H16.9527C16.358 15.1539 15.6964 15.3125 15 15.3125C14.3036 15.3125 13.6446 15.1539 13.0473 14.875H12.6C10.6125 14.875 9 16.5211 9 18.55V19.6875C9 20.4121 9.57589 21 10.2857 21H19.7143C20.4241 21 21 20.4121 21 19.6875V18.55C21 16.5211 19.3875 14.875 17.4 14.875Z" fill="#DD2C00"/>
</svg>
