<svg width="30" height="30" viewBox="0 0 30 30" fill="none" xmlns="http://www.w3.org/2000/svg">
<circle cx="15" cy="15" r="14.5" stroke="#DD2C00"/>
<path d="M15.2172 14.1072C15.0419 14.1072 14.882 13.9936 14.8229 13.829C14.7639 13.6648 14.8157 13.4744 14.9514 13.3639C15.0894 13.2516 15.2871 13.2386 15.4384 13.3321C15.588 13.4246 15.6655 13.6078 15.6266 13.7795C15.5839 13.9683 15.4112 14.1072 15.2172 14.1072Z" fill="#DD2C00"/>
<path d="M23.6732 13.2686H22.4093V11.7308C22.4093 11.4992 22.2215 11.3115 21.99 11.3115H21.3153L21.628 10.3716C21.7951 9.86933 22.0925 9.40476 22.5118 8.99081C22.7307 8.77467 22.8981 8.50528 22.9957 8.21178C23.1666 7.69804 23.117 7.13008 22.8594 6.65361C22.5982 6.17043 22.1609 5.8267 21.628 5.68578C20.6741 5.43342 19.6476 5.9571 19.2915 6.87809C19.1625 7.2118 19.1261 7.57305 19.1862 7.92281C19.2764 8.44691 19.2262 9.01819 19.041 9.57495L18.4632 11.3116H8.01014C7.77862 11.3116 7.59086 11.4993 7.59086 11.7308V13.2687H6.3269C5.59525 13.2687 5 13.8639 5 14.5956C5 15.3273 5.59525 15.9225 6.3269 15.9225H7.59086V19.0956C7.59086 20.6221 8.83273 21.864 10.3592 21.864H10.9914C10.9939 22.14 11.0659 22.3996 11.1908 22.6263H10.4793C9.53092 22.6263 8.75936 23.3978 8.75936 24.3462V24.6286H7.94469C7.71317 24.6286 7.52541 24.8164 7.52541 25.0479C7.52541 25.2795 7.71317 25.4672 7.94469 25.4672H22.0553C22.2868 25.4672 22.4746 25.2795 22.4746 25.0479C22.4746 24.8164 22.2868 24.6286 22.0553 24.6286H21.2406V24.3462C21.2406 23.3978 20.4691 22.6262 19.5207 22.6262H18.8092C18.9341 22.3996 19.0061 22.1399 19.0086 21.8639H19.6408C21.1673 21.8639 22.4091 20.6221 22.4091 19.0956V15.9224H23.6731C24.4047 15.9224 25 15.3272 25 14.5955C25.0002 13.8639 24.4049 13.2686 23.6732 13.2686ZM19.8366 9.83964C20.0653 9.15231 20.1262 8.44033 20.0127 7.78059C19.9782 7.5803 19.9993 7.3728 20.0736 7.18052C20.2778 6.65222 20.8663 6.35173 21.4136 6.49646C21.7203 6.57759 21.9718 6.77503 22.1217 7.05239C22.2717 7.33003 22.2996 7.64781 22.2 7.94713C22.1431 8.1182 22.0498 8.26859 21.9226 8.39404C21.4084 8.90171 21.0415 9.47801 20.8323 10.1069L20.4315 11.3115H19.347L19.8366 9.83964ZM6.3269 15.0839C6.05759 15.0839 5.83856 14.8648 5.83856 14.5955C5.83856 14.3263 6.05764 14.1072 6.3269 14.1072H7.59086V15.0839H6.3269ZM11.8299 21.849C11.8299 21.4047 12.2757 20.8572 12.6082 20.523C12.9403 20.8549 13.3843 21.3993 13.3843 21.849C13.3843 22.2776 13.0356 22.6262 12.6071 22.6262C12.1785 22.6262 11.8299 22.2776 11.8299 21.849ZM15.0001 22.6262C14.5715 22.6262 14.2228 22.2776 14.2228 21.849C14.2228 21.4048 14.6687 20.8572 15.0012 20.5229C15.3333 20.8548 15.7773 21.3993 15.7773 21.849C15.7773 22.2776 15.4287 22.6262 15.0001 22.6262ZM20.4022 24.3462V24.6286H9.59796V24.3462C9.59796 23.8602 9.99334 23.4648 10.4793 23.4648H19.5208C20.0068 23.4648 20.4022 23.8602 20.4022 24.3462ZM16.6158 21.849C16.6158 21.4048 17.0617 20.8572 17.3942 20.523C17.7263 20.8549 18.1702 21.3993 18.1702 21.849C18.1702 22.2776 17.8216 22.6262 17.3931 22.6262C16.9645 22.6262 16.6158 22.2776 16.6158 21.849ZM21.5707 19.0956C21.5707 20.1597 20.705 21.0254 19.6409 21.0254H18.8026C18.45 20.288 17.7592 19.7117 17.6568 19.6289C17.5027 19.5042 17.2821 19.5045 17.1284 19.6298C17.0442 19.6983 16.5621 20.1026 16.1976 20.6537C15.8325 20.1009 15.3482 19.6972 15.2638 19.629C15.1097 19.5042 14.8891 19.5046 14.7354 19.6298C14.6512 19.6984 14.1691 20.1026 13.8046 20.6537C13.4395 20.1009 12.9552 19.6973 12.8708 19.629C12.7167 19.5042 12.4961 19.5046 12.3424 19.6299C12.2402 19.713 11.5518 20.2908 11.1989 21.0255H10.3593C9.2952 21.0255 8.42951 20.1598 8.42951 19.0957V14.1072H13.3144C13.5459 14.1072 13.7337 13.9195 13.7337 13.6879C13.7337 13.4564 13.5459 13.2686 13.3144 13.2686H8.42943V12.1501H21.5707V13.2686H17.1051C16.8736 13.2686 16.6858 13.4564 16.6858 13.6879C16.6858 13.9195 16.8736 14.1072 17.1051 14.1072H21.5707V19.0956ZM23.6732 15.0839H22.4093V14.1072H23.6732C23.9425 14.1072 24.1616 14.3263 24.1616 14.5955C24.1616 14.8648 23.9425 15.0839 23.6732 15.0839Z" fill="#DD2C00"/>
<path d="M9.43107 10.7966C8.48576 10.7966 7.71667 10.0276 7.71667 9.08228C7.71667 8.13697 8.48576 7.36792 9.43107 7.36792C10.3764 7.36792 11.1454 8.13697 11.1454 9.08228C11.1454 10.0276 10.3764 10.7966 9.43107 10.7966V10.7966ZM9.43107 8.20652C8.94815 8.20652 8.55524 8.59939 8.55524 9.08232C8.55524 9.56525 8.94815 9.95811 9.43107 9.95811C9.914 9.95811 10.3069 9.56525 10.3069 9.08232C10.3069 8.59939 9.91396 8.20652 9.43107 8.20652V8.20652Z" fill="#DD2C00"/>
<path d="M15.3478 9.86918C15.0179 9.86918 14.7845 9.83295 14.7594 9.82889C14.5812 9.8 14.4416 9.66029 14.4126 9.4821C14.4015 9.41367 14.1512 7.79567 15.0493 6.89757C15.9474 5.99947 17.5654 6.24986 17.6338 6.26093C17.812 6.28982 17.9516 6.42952 17.9806 6.60772C17.9917 6.67615 18.242 8.29415 17.3439 9.19225C16.7751 9.76105 15.9176 9.86918 15.3478 9.86918V9.86918ZM15.2122 9.0294C15.6684 9.04592 16.368 8.98228 16.751 8.59935C17.1553 8.19499 17.1947 7.47525 17.179 7.06046C16.7225 7.04436 16.0246 7.10821 15.6422 7.4906C15.2594 7.8734 15.1956 8.57272 15.2122 9.0294V9.0294Z" fill="#DD2C00"/>
<path d="M12.6206 8.71375C12.5346 8.71375 12.4486 8.68737 12.3754 8.63459C12.3191 8.59404 10.998 7.62697 10.998 6.35688C10.998 5.0868 12.3191 4.11977 12.3754 4.07918C12.5217 3.97361 12.7193 3.97361 12.8658 4.07918C12.922 4.11973 14.2431 5.0868 14.2431 6.35688C14.2431 7.62697 12.922 8.594 12.8658 8.63459C12.7926 8.68733 12.7066 8.71375 12.6206 8.71375V8.71375ZM12.6191 4.96604C12.285 5.27719 11.8366 5.81609 11.8366 6.35688C11.8366 6.89834 12.286 7.43783 12.6206 7.74906C12.955 7.43813 13.4046 6.89843 13.4046 6.35688C13.4046 5.78503 12.9235 5.2483 12.6191 4.96604V4.96604Z" fill="#DD2C00"/>
</svg>
