<svg width="23" height="19" viewBox="0 0 23 19" fill="none" xmlns="http://www.w3.org/2000/svg">
<path d="M22.026 16.4267L17.7417 12.7273C17.5483 12.5603 17.2862 12.4675 17.0112 12.4675H16.3107C17.4968 11.1577 18.2015 9.5102 18.2015 7.718C18.2015 3.45455 14.2008 0 9.26335 0C4.32588 0 0.325195 3.45455 0.325195 7.718C0.325195 11.9814 4.32588 15.436 9.26335 15.436C11.3389 15.436 13.2468 14.8275 14.7638 13.8033V14.4082C14.7638 14.6456 14.8712 14.872 15.0646 15.039L19.3489 18.7384C19.7528 19.0872 20.406 19.0872 20.8056 18.7384L22.0217 17.6883C22.4256 17.3395 22.4256 16.7755 22.026 16.4267ZM9.26335 12.4675C6.22524 12.4675 3.76295 10.3451 3.76295 7.718C3.76295 5.09462 6.22094 2.96846 9.26335 2.96846C12.3015 2.96846 14.7638 5.09091 14.7638 7.718C14.7638 10.3414 12.3058 12.4675 9.26335 12.4675Z" fill="#DD2C00"/>
</svg>
