<svg width="23" height="19" viewBox="0 0 23 19" fill="none" xmlns="http://www.w3.org/2000/svg">
<path d="M15.9401 12.1319L15.2638 12.8789V12.8625L14.484 13.3889C13.0515 14.356 11.2414 14.936 9.26335 14.936C4.53062 14.936 0.825195 11.6389 0.825195 7.718C0.825195 3.79705 4.53062 0.5 9.26335 0.5C13.9961 0.5 17.7015 3.79705 17.7015 7.718C17.7015 9.37393 17.0515 10.9046 15.9401 12.1319ZM15.2638 13.8033V12.9675H16.3107H17.0112C17.177 12.9675 17.3202 13.0239 17.4149 13.1057L21.6972 16.8034C21.6975 16.8037 21.6978 16.8039 21.6981 16.8042C21.868 16.9532 21.8682 17.1603 21.6949 17.3099L20.4788 18.36L20.4768 18.3617C20.2665 18.5452 19.8929 18.5476 19.6756 18.36L15.3913 14.6605C15.2994 14.5811 15.2638 14.4893 15.2638 14.4082V13.8033ZM3.26295 7.718C3.26295 10.6878 6.02076 12.9675 9.26335 12.9675C12.5108 12.9675 15.2638 10.6836 15.2638 7.718C15.2638 4.74817 12.5059 2.46846 9.26335 2.46846C6.01593 2.46846 3.26295 4.75235 3.26295 7.718Z" stroke="#979797"/>
</svg>
