<svg width="55" height="50" viewBox="0 0 55 50" fill="none" xmlns="http://www.w3.org/2000/svg">
<rect width="54.5322" height="50" rx="10" fill="#DD2C00"/>
<path d="M27.2661 10C18.2287 10 10.9064 16.7137 10.9064 25C10.9064 33.2863 18.2287 40 27.2661 40C36.3035 40 43.6257 33.2863 43.6257 25C43.6257 16.7137 36.3035 10 27.2661 10ZM27.2661 37.0968C19.9768 37.0968 14.0728 31.6835 14.0728 25C14.0728 18.3165 19.9768 12.9032 27.2661 12.9032C34.5554 12.9032 40.4593 18.3165 40.4593 25C40.4593 31.6835 34.5554 37.0968 27.2661 37.0968ZM31.3428 30.7823L25.7423 27.0504C25.5378 26.9113 25.419 26.6935 25.419 26.4637V16.5323C25.419 16.1331 25.7752 15.8065 26.2106 15.8065H28.3215C28.7569 15.8065 29.1131 16.1331 29.1131 16.5323V25.1028L33.5197 28.0423C33.8759 28.2782 33.9485 28.7319 33.6912 29.0585L32.451 30.625C32.1938 30.9456 31.699 31.0181 31.3428 30.7823Z" fill="white"/>
</svg>
