<svg width="30" height="30" viewBox="0 0 30 30" fill="none" xmlns="http://www.w3.org/2000/svg">
<path d="M15 29.5C6.99187 29.5 0.5 23.0081 0.5 15C0.5 6.99187 6.99187 0.5 15 0.5C23.0081 0.5 29.5 6.99187 29.5 15C29.5 23.0081 23.0081 29.5 15 29.5Z" stroke="#DD2C00"/>
<path d="M15 6C10.0282 6 6 10.0282 6 15C6 19.9718 10.0282 24 15 24C19.9718 24 24 19.9718 24 15C24 10.0282 19.9718 6 15 6ZM15 22.2581C10.9899 22.2581 7.74194 19.0101 7.74194 15C7.74194 10.9899 10.9899 7.74194 15 7.74194C19.0101 7.74194 22.2581 10.9899 22.2581 15C22.2581 19.0101 19.0101 22.2581 15 22.2581ZM17.2427 18.4694L14.1617 16.2302C14.0492 16.1468 13.9839 16.0161 13.9839 15.8782V9.91936C13.9839 9.67984 14.1798 9.48387 14.4194 9.48387H15.5806C15.8202 9.48387 16.0161 9.67984 16.0161 9.91936V15.0617L18.4403 16.8254C18.6363 16.9669 18.6762 17.2391 18.5347 17.4351L17.8524 18.375C17.7109 18.5673 17.4387 18.6109 17.2427 18.4694Z" fill="#DD2C00"/>
</svg>
